<svg xmlns="http://www.w3.org/2000/svg" xmlns:xlink="http://www.w3.org/1999/xlink" viewBox="0 0 31 31">
  <radialGradient id="SVGID_1_" cx="17.0906" cy="-29.5784" r="46.3613" gradientTransform="matrix(0.6475 -0.7749 -0.5087 -0.4304 -19.5548 37.7781)" gradientUnits="userSpaceOnUse">
    <stop offset="7.300000e-02" style="stop-color:#EACC7B" />
    <stop offset="0.184" style="stop-color:#ECAB5A" />
    <stop offset="0.307" style="stop-color:#F0802F" />
    <stop offset="0.358" style="stop-color:#ED6E3D" />
    <stop offset="0.46" style="stop-color:#EA4D52" />
    <stop offset="0.516" style="stop-color:#E84059" />
    <stop offset="0.689" style="stop-color:#CC4291" />
    <stop offset="0.724" style="stop-color:#BB4592" />
    <stop offset="0.789" style="stop-color:#924895" />
    <stop offset="0.877" style="stop-color:#5E4C9A" />
    <stop offset="0.98" style="stop-color:#3956A3" />
  </radialGradient>
  <path fill="url(#SVGID_1_)" d="M24.3,31H6.9c-3.7,0-6.7-3-6.7-6.7V6.7C0.2,3,3.2,0,6.9,0h17.4C28,0,31,3,31,6.7v17.5C31,28,28,31,24.3,31z" />
  <path fill="#fff" d="M15.6,6.1c3.1,0,3.4,0,4.6,0.1c1.1,0.1,1.7,0.3,2.1,0.4c0.5,0.2,0.9,0.5,1.3,0.9c0.4,0.4,0.7,0.8,0.9,1.3  c0.1,0.4,0.3,1,0.4,2.2c0,1.1,0,1.5,0,4.6s0,3.4-0.1,4.7c-0.1,1.1-0.3,1.8-0.4,2.2c-0.2,0.5-0.5,0.9-0.9,1.3  c-0.4,0.4-0.8,0.7-1.3,0.9c-0.4,0.1-1,0.3-2.1,0.4c-1.1,0-1.5,0-4.6,0s-3.4,0-4.6-0.1c-1.1-0.1-1.7-0.3-2.1-0.4  c-0.5-0.2-0.9-0.5-1.3-0.9c-0.4-0.4-0.7-0.8-0.9-1.3c-0.1-0.4-0.3-1-0.4-2.2c0-1.1,0-1.5,0-4.6s0-3.4,0.1-4.6  c0.1-1.1,0.3-1.8,0.4-2.2c0.2-0.5,0.5-0.9,0.9-1.3C8,6.9,8.4,6.7,8.9,6.5c0.4-0.1,1-0.3,2.1-0.4C12.2,6.1,12.5,6.1,15.6,6.1 M15.6,4  c-3.1,0-3.5,0-4.7,0.1s-2,0.3-2.7,0.5C7.4,4.9,6.8,5.3,6.2,6s-1,1.3-1.3,2c-0.3,0.7-0.5,1.6-0.5,2.8c-0.1,1.2-0.1,1.6-0.1,4.7  s0,3.5,0.1,4.7s0.3,2,0.5,2.8c0.3,0.7,0.7,1.4,1.3,2c0.6,0.6,1.3,1,2,1.3c0.7,0.3,1.5,0.5,2.7,0.5s1.6,0.1,4.7,0.1s3.5,0,4.7-0.1  s2-0.3,2.7-0.5c0.7-0.3,1.4-0.7,2-1.3c0.6-0.6,1-1.3,1.3-2c0.3-0.7,0.5-1.5,0.5-2.8C27,19,27,18.6,27,15.5s0-3.5-0.1-4.7  c-0.1-1.2-0.3-2-0.5-2.8c-0.3-0.7-0.7-1.4-1.3-2c-0.7-0.6-1.3-1-2-1.3c-0.7-0.3-1.5-0.5-2.7-0.5C19.1,4,18.7,4,15.6,4L15.6,4z" />
  <path fill="#fff" d="M15.6,9.4c-3.3,0-6,2.7-6,6.1s2.7,6.1,6,6.1s6-2.7,6-6.1S18.9,9.4,15.6,9.4z M15.6,19.5c-2.2,0-4-1.8-4-4  s1.8-4,4-4s4,1.8,4,4S17.8,19.5,15.6,19.5z" />
  <ellipse fill="#fff" cx="21.6" cy="9.4" rx="1.3" ry="1.3" />
</svg>
