<svg xmlns="http://www.w3.org/2000/svg">
  <symbol id="fb" viewBox="0 0 31 31">
    <path d="M27.8,0H3.2C1.5,0,0,1.5,0,3.2v24.6C0,29.5,1.5,31,3.2,31h24.6c1.8,0,3.2-1.5,3.2-3.2V3.2C31,1.5,29.5,0,27.8,0 z M25.9,20.1h-4.7l0,10.8h-6L15.2,20h-2.9v-4.9h3l0-5.9c0,0,0.6-3.9,4-4c3.4-0.1,5.9,0,5.9,0v4.8h-2.9c0,0-1.1,0.1-1.1,1.2 S21,14.9,21,14.9l4.9,0V20.1z" />
  </symbol>
  <symbol id="inst" viewBox="0 0 31 31">
    <radialGradient id="svgid" cx="17.0906" cy="-29.5784" r="46.3613" gradientTransform="matrix(0.6475 -0.7749 -0.5087 -0.4304 -19.5548 37.7781)" gradientUnits="userSpaceOnUse">
      <stop offset="7.300000e-02" style="stop-color:#EACC7B" />
      <stop offset="0.184" style="stop-color:#ECAB5A" />
      <stop offset="0.307" style="stop-color:#F0802F" />
      <stop offset="0.358" style="stop-color:#ED6E3D" />
      <stop offset="0.46" style="stop-color:#EA4D52" />
      <stop offset="0.516" style="stop-color:#E84059" />
      <stop offset="0.689" style="stop-color:#CC4291" />
      <stop offset="0.724" style="stop-color:#BB4592" />
      <stop offset="0.789" style="stop-color:#924895" />
      <stop offset="0.877" style="stop-color:#5E4C9A" />
      <stop offset="0.98" style="stop-color:#3956A3" />
    </radialGradient>
    <path fill="url(img/sprite.svg#svgid)" d="M24.3,31H6.9c-3.7,0-6.7-3-6.7-6.7V6.7C0.2,3,3.2,0,6.9,0h17.4C28,0,31,3,31,6.7v17.5C31,28,28,31,24.3,31z" />
    <path fill="#ffffff" d="M15.6,6.1c3.1,0,3.4,0,4.6,0.1c1.1,0.1,1.7,0.3,2.1,0.4c0.5,0.2,0.9,0.5,1.3,0.9c0.4,0.4,0.7,0.8,0.9,1.3  c0.1,0.4,0.3,1,0.4,2.2c0,1.1,0,1.5,0,4.6s0,3.4-0.1,4.7c-0.1,1.1-0.3,1.8-0.4,2.2c-0.2,0.5-0.5,0.9-0.9,1.3  c-0.4,0.4-0.8,0.7-1.3,0.9c-0.4,0.1-1,0.3-2.1,0.4c-1.1,0-1.5,0-4.6,0s-3.4,0-4.6-0.1c-1.1-0.1-1.7-0.3-2.1-0.4  c-0.5-0.2-0.9-0.5-1.3-0.9c-0.4-0.4-0.7-0.8-0.9-1.3c-0.1-0.4-0.3-1-0.4-2.2c0-1.1,0-1.5,0-4.6s0-3.4,0.1-4.6  c0.1-1.1,0.3-1.8,0.4-2.2c0.2-0.5,0.5-0.9,0.9-1.3C8,6.9,8.4,6.7,8.9,6.5c0.4-0.1,1-0.3,2.1-0.4C12.2,6.1,12.5,6.1,15.6,6.1 M15.6,4  c-3.1,0-3.5,0-4.7,0.1s-2,0.3-2.7,0.5C7.4,4.9,6.8,5.3,6.2,6s-1,1.3-1.3,2c-0.3,0.7-0.5,1.6-0.5,2.8c-0.1,1.2-0.1,1.6-0.1,4.7  s0,3.5,0.1,4.7s0.3,2,0.5,2.8c0.3,0.7,0.7,1.4,1.3,2c0.6,0.6,1.3,1,2,1.3c0.7,0.3,1.5,0.5,2.7,0.5s1.6,0.1,4.7,0.1s3.5,0,4.7-0.1  s2-0.3,2.7-0.5c0.7-0.3,1.4-0.7,2-1.3c0.6-0.6,1-1.3,1.3-2c0.3-0.7,0.5-1.5,0.5-2.8C27,19,27,18.6,27,15.5s0-3.5-0.1-4.7  c-0.1-1.2-0.3-2-0.5-2.8c-0.3-0.7-0.7-1.4-1.3-2c-0.7-0.6-1.3-1-2-1.3c-0.7-0.3-1.5-0.5-2.7-0.5C19.1,4,18.7,4,15.6,4L15.6,4z" />
    <path fill="#ffffff" d="M15.6,9.4c-3.3,0-6,2.7-6,6.1s2.7,6.1,6,6.1s6-2.7,6-6.1S18.9,9.4,15.6,9.4z M15.6,19.5c-2.2,0-4-1.8-4-4  s1.8-4,4-4s4,1.8,4,4S17.8,19.5,15.6,19.5z" />
    <ellipse fill="#ffffff" cx="21.6" cy="9.4" rx="1.3" ry="1.3" />
  </symbol>
  <symbol id="pin-footer" viewBox="0 0 30 40">
    <path d="M15,0C6.7,0,0,6.2,0,13.9c0,2.4,0.7,4.7,1.9,6.7c0,0.1,0.1,0.2,0.2,0.3c0.3,0.5,0.6,0.9,1,1.4l0,0L15.7,40 l11.6-18c0.5-0.6,0.9-1.3,1.3-2c1-1.8,1.5-3.9,1.5-6.1C30,6.2,23.3,0,15,0z M15.3,19.5c-3.6,0-6.5-2.9-6.5-6.5s2.9-6.5,6.5-6.5 s6.5,2.9,6.5,6.5C21.8,16.5,18.8,19.5,15.3,19.5z" />
    <circle r="4" cx="15.3" cy="13"/>
  </symbol>
  <symbol id="email" viewBox="0 0 31 23">
    <path d="M30.3,1.9C30,1.4,29.7,1,29.2,0.7C28.6,0.2,27.8,0,27,0H4C3.2,0,2.5,0.2,1.9,0.7C1.4,1,1,1.4,0.7,1.8 C0.3,2.5,0,3.4,0,4.3v14.5c0,0.8,0.2,1.5,0.5,2.1c0.3,0.5,0.6,0.9,1,1.3C2.2,22.6,3.1,23,4,23h23c0.9,0,1.7-0.3,2.4-0.9 c0.4-0.4,0.8-0.8,1-1.2c0.4-0.6,0.6-1.4,0.6-2.2V4.3C31,3.4,30.8,2.6,30.3,1.9z M4,1.7h23c0.4,0,0.7,0.1,1.1,0.3l-7.7,8.2l-1.1,1.2 L18,12.7c-1.3,1.4-3.5,1.4-4.9,0l-1.3-1.4L10.7,10L3,1.9C3.3,1.8,3.7,1.7,4,1.7z M1.6,18.7V4.3c0-0.5,0.1-0.9,0.3-1.2l7.7,8.2 l-7.8,8.3C1.6,19.3,1.6,19,1.6,18.7z M27,21.3H4c-0.5,0-1-0.2-1.3-0.4l8-8.5l1.3,1.4c1,1.1,2.3,1.6,3.6,1.6s2.6-0.5,3.6-1.6l1.2-1.3 l7.9,8.4C27.9,21.2,27.5,21.3,27,21.3z M29.5,18.7c0,0.3-0.1,0.6-0.2,0.9l-7.8-8.3l7.7-8.2c0.2,0.4,0.3,0.8,0.3,1.2V18.7z" />
  </symbol>
  <symbol id="office" viewBox="0 0 72.6 80.4">
    <polygon points="71.1,38.8 71.1,45.1 68.4,45.1 68.4,80.4 62.8,80.4 62.8,45.1 32.5,45.1 32.5,38.8 	" />
    <path d="M72.6,20.9c0,0.2,0,0.4-0.1,0.6L66.6,36c-0.3,0.7-1,1.1-1.8,1c-0.1,0-0.1,0-0.2,0H50.3c-0.9,0-1.7-0.8-1.7-1.7 s0.8-1.7,1.7-1.7h13.5l5.5-13.5c0.4-0.9,1.3-1.3,2.2-0.9C72.2,19.6,72.6,20.2,72.6,20.9z" />
    <circle cx="22.6" cy="8.9" r="8.9" />
    <path d="M46.8,33.6c0.1,1-0.3,1.9-0.9,2.6c-0.6,0.6-1.4,0.9-2.3,0.9H31.9c0,0-2.9,0.1-5.9-0.6v11h11.3 c0.1,0,0.3,0,0.4,0h0.1c1.1,0,2.2,0.5,2.9,1.2c0.8,0.8,1.2,1.8,1.2,3l0,21.7c0,2.2-1.6,4.2-3.8,4.4c-2.5,0.2-4.7-1.7-4.7-4.2V55.8 H21.2c-0.3,0-0.6,0-0.9-0.1c-0.4,0.1-0.7,0.1-1.1,0.1H15c-3.7,0-6.7-3-6.7-6.7V26.3c0-3.7,3-6.7,6.7-6.7h4.2c3.5,0,6.3,2.8,6.7,6.1 c0.1,1.1,0.9,2.6,1.7,3.3c0.1,0.1,0.3,0.2,0.4,0.3c0.9,0.8,2.1,1.2,3.3,1.2c0.4,0,0.2,0,0.5,0l11.5,0 C45.1,30.6,46.7,31.9,46.8,33.6z" />
    <path d="M17.1,62.7v5.5c5.4,0.5,8.6,3.4,10,5c0.1,0,0.3,0,0.4,0c1.6,0,2.8,1.3,2.8,2.8s-1.3,2.8-2.8,2.8 s-2.8-1.3-2.8-2.8c0-0.5,0.1-1,0.4-1.4c-0.4-1.1-1.9-3.1-8-5.2v0.7h-0.5v3.2c1.2,0.3,2,1.4,2,2.7c0,1.6-1.3,2.8-2.8,2.8 s-2.8-1.3-2.8-2.8c0-1.3,0.9-2.4,2.1-2.7v-3.2h-0.7v-0.8c-5.1,1.8-7.1,3.5-7.8,4.6c0.5,0.5,0.9,1.3,0.9,2.1c0,1.6-1.3,2.8-2.8,2.8 s-2.8-1.3-2.8-2.8c0-1.4,1-2.5,2.3-2.8c1.4-1.7,4.8-4.7,10.3-5.1v-5.5H2.6c-1.4,0-2.6-1.2-2.6-2.6c0-0.1,0-0.2,0-0.3 c0-0.1,0-0.2,0-0.3v-26c0-1.8,1.5-3.2,3.2-3.2c0.9,0,1.7,0.4,2.3,1c0.6,0.6,1,1.4,1,2.3v24.1h22.5c1.4,0,2.6,1.2,2.6,2.6 c0,0.7-0.3,1.3-0.8,1.8c-0.5,0.5-1.1,0.8-1.8,0.8H17.1z" />
  </symbol>
  <symbol id="park" viewBox="0 0 120 84">
    <path d="M60.9,60.5C59.2,66,38,72.7,41.3,83.9H0.1C3.3,78.7,7.6,74,13,70c-0.5-0.6-0.7-1.2-0.7-1.9 c0-2.1,2.4-3.8,5.4-3.8c0.7,0,1.5,0.1,2.1,0.3c-0.3-0.7-0.4-1.5-0.4-2.3c0-3.2,2.3-5.8,5.2-5.8c2.4,0,4.4,1.9,5,4.4 c1-0.4,1.9-0.7,2.9-1.1v-8.8c0.4,0,0.8,0.1,1.2,0.1c0.6,0.1,1.2,0,1.8-0.1v7.8c7.3-2.2,15.4-3.5,23.7-3.6 C60.6,56.5,61.6,58.3,60.9,60.5z" />
    <path d="M120,83.9H48.6c2.4-9.4,7.3-8.7,15.3-16.5c4.3-4.3,3.5-8.9,1.9-12.1c3.9,0.2,7.6,0.7,11.3,1.5v-8.1 c0.4,0.1,0.8,0.1,1.2,0.1c0.6,0,1.2-0.1,1.8-0.3v9c1.8,0.4,3.6,0.9,5.3,1.5c1.2-3.2,3.8-5.5,6.8-5.5c4,0,7.3,3.8,7.5,8.8 c0.6-0.5,1.2-0.7,1.9-0.7c2,0,3.6,2.1,3.6,4.7c0,0.8-0.2,1.6-0.4,2.2C111.3,72.7,116.4,78.1,120,83.9z" />
    <path d="M91.2,24.4c0,12.3-4.8,22.4-11.1,24V37.9l4.2-4.7l-1.1-1l-3.1,3.4V19.2h-3v12l-7.4-7.5l-0.9,0.8l8.3,8.4v15.6 C70.6,47.3,65.4,37,65.4,24.3C65.4,10.9,71.2,0,78.3,0S91.2,11,91.2,24.4z" />
    <path d="M43.9,40.9c0,5-3.6,9.2-8.3,10V39.6h-3v5l-3.6-2.9L28,42.9l4.5,3.6v4.4c-5-0.6-8.9-4.9-8.9-10.1 c0-5.6,4.5-10.2,10.2-10.2C39.4,30.8,43.9,35.3,43.9,40.9z" />
  </symbol>
  <symbol id="phone" viewBox="0 0 19 29">
    <path d="M15,0H4C1.8,0,0,1.8,0,4v21c0,2.2,1.8,4,4,4h11c2.2,0,4-1.8,4-4V4C19,1.8,17.2,0,15,0z M12.1,26.5H6.9v-1.9h5.2 V26.5z M16.5,22.6H2.9V4h13.6V22.6z" />
  </symbol>
  <symbol id="playground" viewBox="0 0 112 111">
    <path d="M105.8,96.4h-0.7c-0.8,0.1-21.3,2.2-28.2-25C70.6,47,54.5,44.8,48.5,44.8V22.8L26.3,2.2l-0.1-0.1l-2-2.1 L1.3,22.6l0.3,0.3H0.8v88h10.9V70.6h25.8v5.7H14.8v3h22.8v5.8H14.8v3h22.8v5.8H14.8v3h22.8v5.8H14.8v3h22.8v5.4h10.9V72.1 c3.5,1.7,9.4,6.4,14.1,18.8c7.2,19.1,39.2,20.1,46.3,20.1c0.7,0,1.2,0,1.3-0.1c0.8,0,1.5-0.6,1.6-1.3 C113.3,98.3,106.1,96.5,105.8,96.4z M24.1,4.3l20,18.7H5.3L24.1,4.3z M8.7,107.9H3.8V70.6h4.9V107.9z M45.5,107.9h-4.9V70.6h4.9 V107.9z M45.5,67.6H3.8V25.9h41.7V67.6z M108.5,108c-6.9-0.1-36.5-1.3-42.9-18c-5.6-14.8-13.1-19.6-17.2-21.1V47.7 c5.5,0,19.4,2.5,24.9,24.5c7.2,27.7,28.2,27.6,31.6,27.4C105.9,100,109,101.7,108.5,108z" />
    <path d="M24.3,62.5c-8.5,0-15.5-6.9-15.5-15.5s6.9-15.5,15.5-15.5s15.5,7,15.5,15.5S32.8,62.5,24.3,62.5z M24.3,34.5 c-6.9,0-12.5,5.6-12.5,12.5s5.6,12.5,12.5,12.5S36.8,53.9,36.8,47S31.2,34.5,24.3,34.5z" />
  </symbol>
  <symbol id="playground-main" viewBox="0 0 93 93">
    <path d="M0,18v29h37V18H0z M19,44c-6.1,0-11-4.9-11-11s4.9-11,11-11s11,4.9,11,11S25.1,44,19,44z" />
    <rect y="51" width="10" height="42" />
    <polygon points="37,51 37,93 27,93 27,87 15,87 15,78 27,78 27,69 15,69 15,60 27,60 27,51 " />
    <polygon points="0,13.8 19,0 37,13.8 " />
    <path d="M41.9,46.5V28.2c0,0,22.6-6.2,31.7,30.8c0,0,2,20,19.4,19v13.8c0,0-25,3.7-33.1-28.3 C59.9,63.5,58.6,45.5,41.9,46.5z" />
  </symbol>
  <symbol id="key" viewBox="0 0 115 113">
    <path d="M91.9,39.6c0-10.1-8.6-18.2-19.2-18.2c-4.9,0-9.5,1.7-13,4.9l0,0l-0.2,0.2l-1.9,1.8l26.6,26.2l2.1-2l0,0 C89.8,49,91.9,44.4,91.9,39.6z M61.7,28.4c3-2.6,6.9-4.1,10.9-4.1c8.9,0,16.2,6.8,16.2,15.2c0,4.1-1.7,7.9-4.8,10.8L61.7,28.4z" />
    <path d="M78.1,0c-20.4,0-37,16.3-37,36.3c0,4.7,0.9,9.2,2.6,13.3L0.3,91.7L0,107.6l4.9,5.2l17.5-0.1l0,0l6.9-6.9v-7.3 l5.3,1.7l8.5-8.3l-0.3-4l3.2,0.8l6.9-6.4l-0.8-3.7l4.8,0.7l7.5-9.3c4.2,1.7,8.8,2.6,13.6,2.6c20.4,0,36.9-16.3,36.9-36.3 S98.4,0,78.1,0z M55.2,74.9l-8.3-1.3l1.6,7.2L45,84.1l-6.5-1.6l0.6,7.8l-5.5,5.3l-8.2-1.1v8.9l-4.6,5.3H6.5l-1.2-1.3l0.1-0.1 L45,68.5c0.8-0.8,0.8-2.1,0-2.9s-2.1-0.8-2.9,0L4.2,102.7l0.1-8.9l41.3-40.4c3.5,6.3,8.7,11.4,15.1,14.8L55.2,74.9z M78.1,68.5 C60,68.5,45.3,54,45.3,36.3S59.9,4,78.1,4s32.8,14.5,32.8,32.2S96.2,68.5,78.1,68.5z" />
  </symbol>
  <symbol id="fourwayarrow" viewBox="0 0 114 114">
    <path d="M113.6,56.5c-0.1-0.1-0.2-0.2-0.3-0.3l0,0c0-0.1-0.1-0.1-0.2-0.2l-0.1-0.1l-16.7-15c-0.8-0.7-2.1-0.7-2.8,0.1 c-0.4,0.4-0.5,0.9-0.5,1.3c0,0.5,0.2,1.1,0.7,1.5l12.9,11.7H59V6.8l12,13.3c0.4,0.4,0.9,0.7,1.5,0.7c0.5,0,1-0.2,1.3-0.5 c0.8-0.7,0.9-2,0.1-2.8L58.8,0.7c-0.7-0.8-2-0.9-2.8-0.1c-0.1,0.1-0.2,0.2-0.3,0.3l0,0c-0.1,0-0.1,0.1-0.2,0.2l-0.1,0.1l-15,16.6 c-0.7,0.8-0.7,2.1,0.2,2.8c0.4,0.4,0.9,0.5,1.3,0.5c0.5,0,1.1-0.2,1.5-0.7L55,7.5v47.9H6.9l13.3-12c0.4-0.4,0.7-0.9,0.7-1.5 c0-0.5-0.2-1-0.5-1.3c-0.7-0.8-2-0.9-2.8-0.1L0.7,55.7c-0.8,0.7-0.9,2-0.1,2.8c0.1,0.1,0.2,0.2,0.3,0.3l0,0c0,0.1,0.1,0.1,0.2,0.2 l0,0l16.7,15.1c0.8,0.7,2.1,0.7,2.8-0.1c0.4-0.4,0.5-0.9,0.5-1.3c0-0.5-0.2-1.1-0.7-1.5L7.6,59.5H55v47.7L43,93.9 c-0.4-0.4-0.9-0.7-1.5-0.7c-0.5,0-1,0.2-1.3,0.5c-0.8,0.7-0.9,2-0.1,2.8l15.1,16.8c0.7,0.8,2,0.9,2.8,0.1c0.1-0.1,0.2-0.2,0.3-0.3 l0,0c0.1,0,0.1-0.1,0.2-0.2l0.1-0.1l15.1-16.7c0.7-0.8,0.7-2.1-0.1-2.8c-0.4-0.3-0.9-0.5-1.3-0.5c-0.6,0-1.1,0.2-1.5,0.7l-11.7,12.9 v-47h48.3l-13.3,12c-0.4,0.4-0.7,0.9-0.7,1.5c0,0.5,0.2,1,0.5,1.3c0.7,0.8,2,0.9,2.8,0.1l16.8-15.1 C114.3,58.6,114.3,57.3,113.6,56.5z M113.2,58.8C113.2,58.8,113.2,58.9,113.2,58.8C113.2,58.8,113.3,58.8,113.2,58.8 C113.3,58.8,113.3,58.8,113.2,58.8z" />
  </symbol>
  <symbol id="infrastructure" viewBox="0 0 110 109">
    <g transform="matrix(0.3331 0 0 0.3331 -112.235 -76.0375)">
      <path d="M645.5,282.1h-64.4v-13.1c6.3,0,11.4-5.4,11.4-11.7v-17.3c0-6.6-5.4-11.7-11.7-11.7H422.1 c-6.3,0-11.7,5.4-11.7,11.7v17.3c0,4.8,3,9,7.2,10.8v14h-59.2c-11.7,0-21.4,9.6-21.4,21.2v252.2h330.2V303.3 C666.9,291.6,657.2,282.1,645.5,282.1z M419.3,239.9c0-1.5,1.2-2.7,2.7-2.7h158.8c1.5,0,2.7,1.2,2.7,2.7v17.3 c0,1.5-1.2,2.7-2.7,2.7H422.1c-1.5,0-2.7-1.2-2.7-2.7V239.9z M572.1,268.6v145.8h-105c-3.3,0-6.6,0.6-9.3,2.1 c-11.7,5.4-22.3,11.7-31.3,17.9V268.6H572.1z M441.3,435.4c3.3,19.7,0.6,34.1-8.4,42.4c-12.3,12-33.4,10.8-43.9,9.3 C398.9,471.2,415.1,451.5,441.3,435.4z M345.7,303.3c0-6.9,5.7-12.3,12.3-12.3h59.2v150.3c-37.9,30.8-48.7,66.3-49.9,71.7h-21.7 V303.3z M657.8,546.5H345.7V522h312.2C657.8,522,657.8,546.5,657.8,546.5z M471.4,508v-38c0-7.5,6.3-13.7,13.8-13.7h9.6 c7.5,0,13.8,6.3,13.8,13.7v38c0,2.7-2.1,4.8-4.8,4.8h-27.4C473.5,513.1,471.4,510.7,471.4,508z M657.8,513.1H516.5 c0.6-1.5,0.9-3,0.9-4.8V470c0-12.6-10.2-22.7-22.9-22.7h-9.6c-12.6,0-22.9,10.2-22.9,22.7v38c0,1.8,0.3,3.3,0.9,4.8h-86.3 c1.2-3.3,3.3-9.6,7.5-17.6c3.6,0.6,9.9,1.5,17.1,1.5c12.3,0,27.1-2.4,37.6-12.6c11.7-11.4,15-29.3,10.5-53.8c3.9-2.1,7.8-4.2,12-6 c1.8-0.9,3.6-1.2,5.4-1.2h190.7v90H657.8z M605.2,413.9v-24.5c0-0.3,0.3-0.6,0.6-0.6h22.3c0.3,0,0.6,0.3,0.6,0.6v24.5 c0,0.3-0.3,0.6-0.6,0.6h-22.3C605.5,414.4,605.2,414.2,605.2,413.9z M657.8,414.4h-20.2c0-0.3,0-0.3,0-0.6v-24.5 c0-5.4-4.2-9.6-9.6-9.6h-22.3c-5.4,0-9.6,4.2-9.6,9.6v24.5c0,0.3,0,0.3,0,0.6h-15.3V291h64.4c6.9,0,12.3,5.7,12.3,12.3v111.2H657.8 z" />
      <path d="M393.5,364.2h-20.8c-5.7,0-10.2-4.5-10.2-10.2v-32.9c0-5.7,4.5-10.2,10.2-10.2h20.8c5.7,0,10.2,4.5,10.2,10.2 v32.9C403.7,359.5,399.2,364.2,393.5,364.2z M372.7,319.7c-0.6,0-1.2,0.6-1.2,1.2v32.9c0,0.6,0.6,1.2,1.2,1.2h20.8 c0.6,0,1.2-0.6,1.2-1.2v-32.9c0-0.6-0.6-1.2-1.2-1.2C393.5,319.7,372.7,319.7,372.7,319.7z" />
      <path d="M393.5,435.4h-20.8c-5.7,0-10.2-4.5-10.2-10.2v-32.9c0-5.7,4.5-10.2,10.2-10.2h20.8c5.7,0,10.2,4.5,10.2,10.2 v32.9C403.7,430.9,399.2,435.4,393.5,435.4z M372.7,391.1c-0.6,0-1.2,0.6-1.2,1.2v32.9c0,0.6,0.6,1.2,1.2,1.2h20.8 c0.6,0,1.2-0.6,1.2-1.2v-32.9c0-0.6-0.6-1.2-1.2-1.2C393.5,391.1,372.7,391.1,372.7,391.1z" />
      <path d="M473.8,335.3H453c-5.7,0-10.2-4.5-10.2-10.2v-32.9c0-5.7,4.5-10.2,10.2-10.2h20.8c5.7,0,10.2,4.5,10.2,10.2 v32.9C484.3,330.8,479.5,335.3,473.8,335.3z M453,291c-0.6,0-1.2,0.6-1.2,1.2v32.9c0,0.6,0.6,1.2,1.2,1.2h20.8 c0.6,0,1.2-0.6,1.2-1.2v-32.9c0-0.6-0.6-1.2-1.2-1.2C473.8,291,453,291,453,291z" />
      <path d="M473.8,401.6H453c-5.7,0-10.2-4.5-10.2-10.2v-32.9c0-5.7,4.5-10.2,10.2-10.2h20.8c5.7,0,10.2,4.5,10.2,10.2 v32.9C484.3,396.8,479.5,401.6,473.8,401.6z M453,357.1c-0.6,0-1.2,0.6-1.2,1.2v32.9c0,0.6,0.6,1.2,1.2,1.2h20.8 c0.6,0,1.2-0.6,1.2-1.2v-32.9c0-0.6-0.6-1.2-1.2-1.2H453z" />
      <path d="M543.6,335.3h-20.8c-5.7,0-10.2-4.5-10.2-10.2v-32.9c0-5.7,4.5-10.2,10.2-10.2h20.8c5.7,0,10.2,4.5,10.2,10.2 v32.9C554.1,330.8,549.3,335.3,543.6,335.3z M522.8,291c-0.6,0-1.2,0.6-1.2,1.2v32.9c0,0.6,0.6,1.2,1.2,1.2h20.8 c0.6,0,1.2-0.6,1.2-1.2v-32.9c0-0.6-0.6-1.2-1.2-1.2C543.6,291,522.8,291,522.8,291z" />
      <path d="M627.5,364.2h-20.8c-5.7,0-10.2-4.5-10.2-10.2v-32.9c0-5.7,4.5-10.2,10.2-10.2h20.8c5.7,0,10.2,4.5,10.2,10.2 v32.9C637.7,359.5,633.2,364.2,627.5,364.2z M606.4,319.7c-0.6,0-1.2,0.6-1.2,1.2v32.9c0,0.6,0.6,1.2,1.2,1.2h20.8 c0.6,0,1.2-0.6,1.2-1.2v-32.9c0-0.6-0.6-1.2-1.2-1.2C627.2,319.7,606.4,319.7,606.4,319.7z" />
      <path d="M543.6,401.6h-20.8c-5.7,0-10.2-4.5-10.2-10.2v-32.9c0-5.7,4.5-10.2,10.2-10.2h20.8c5.7,0,10.2,4.5,10.2,10.2 v32.9C554.1,396.8,549.3,401.6,543.6,401.6z M522.8,357.1c-0.6,0-1.2,0.6-1.2,1.2v32.9c0,0.6,0.6,1.2,1.2,1.2h20.8 c0.6,0,1.2-0.6,1.2-1.2v-32.9c0-0.6-0.6-1.2-1.2-1.2H522.8z" />
      <path d="M563.4,496.9h-19.5c-8.4,0-15-6.9-15-14.9v-19.7c0-8.4,6.9-14.9,15-14.9h19.5c8.4,0,15,6.9,15,14.9v19.4 C578.4,490.1,571.8,496.9,563.4,496.9z M543.9,456.3c-3.3,0-6,2.7-6,6v19.4c0,3.3,2.7,6,6,6h19.5c3.3,0,6-2.7,6-6v-19.4 c0-3.3-2.7-6-6-6H543.9z" />
      <path d="M622.7,496.9h-19.5c-8.4,0-15-6.9-15-14.9v-19.7c0-8.4,6.9-14.9,15-14.9h19.5c8.4,0,15,6.9,15,14.9v19.4 C637.7,490.1,630.8,496.9,622.7,496.9z M602.8,456.3c-3.3,0-6,2.7-6,6v19.4c0,3.3,2.7,6,6,6h19.5c3.3,0,6-2.7,6-6v-19.4 c0-3.3-2.7-6-6-6H602.8z" />
    </g>
  </symbol>
  <symbol id="hamburger" viewBox="0 0 67 40">
    <rect width="67" height="10.4" />
    <rect y="29.6" width="67" height="10.4" />
    <rect y="14.8" width="67" height="10.4" />
  </symbol>
  <symbol id="clock" viewBox="0 0 18 18">
    <path d="M9,18c-5,0-9-4-9-9s4-9,9-9s9,4.1,9,9C18,14,14,18,9,18z M9,1C4.6,1,1,4.6,1,9s3.6,8,8,8s8-3.6,8-8S13.4,1,9,1z " />
    <path d="M8.6,10.3c-0.3,0-0.5-0.2-0.5-0.5V2.5C8.1,2.3,8.4,2,8.6,2s0.5,0.2,0.5,0.5v7.3C9.1,10.1,8.9,10.3,8.6,10.3z" />
    <path d="M8.1,9.8c0-0.3,0.2-0.5,0.4-0.5h6.9c0.2,0,0.4,0.2,0.4,0.5s-0.2,0.5-0.4,0.5H8.6C8.3,10.3,8.1,10.1,8.1,9.8z" />
  </symbol>
  <symbol id="sun" viewBox="0 0 16 16.7">
    <path d="M15.5,7.8h-2.7c0-0.5-0.2-1-0.4-1.4c0.1,0,0.1,0,0.2-0.1L15,4.7c0.2-0.2,0.3-0.5,0.1-0.7 c-0.2-0.2-0.5-0.3-0.7-0.1l-2.3,1.6c0,0-0.1,0-0.1,0.1c-0.3-0.4-0.6-0.8-1.1-1.1L11,4.4L12.5,2c0.1-0.2,0.1-0.6-0.2-0.7 c-0.2-0.1-0.5-0.1-0.7,0.2l-1.5,2.4V4c-0.5-0.3-1-0.4-1.6-0.5c0-0.1,0.1-0.1,0.1-0.2V0.5C8.5,0.2,8.3,0,7.9,0C7.7,0,7.4,0.2,7.4,0.5 v2.8c0,0.1,0,0.1,0,0.2c-0.5,0-1,0.2-1.4,0.3V3.7L4.7,1.3C4.5,1.1,4.2,1,4,1.1C3.7,1.2,3.7,1.5,3.8,1.8l1.4,2.5c0,0,0,0,0,0.1 C4.7,4.7,4.3,5.1,3.9,5.6L3.8,5.5L1.5,3.8C1.3,3.6,1,3.7,0.8,3.9C0.7,4.1,0.7,4.4,0.9,4.6l2.3,1.7c0.1,0,0.2,0.1,0.3,0.1 C3.3,6.8,3.1,7.3,3.1,7.8H0.4C0.1,7.8-0.1,8-0.1,8.4s0.2,0.5,0.5,0.5h2.7c0,0.6,0.2,1.1,0.4,1.6c-0.1,0-0.2,0-0.2,0.1l-2.4,1.6 c-0.2,0.2-0.3,0.5-0.1,0.7C1,13.1,1.3,13.2,1.5,13l2.3-1.6l0.1-0.1c0.3,0.5,0.8,0.9,1.3,1.2c0,0,0,0-0.1,0.1l-1.3,2.5 c-0.1,0.3,0,0.5,0.2,0.7c0.2,0.1,0.5,0,0.7-0.2L6,13.1V13c0.4,0.2,0.9,0.3,1.4,0.3v0.1v2.8c0,0.3,0.2,0.5,0.5,0.5s0.5-0.2,0.5-0.5 v-2.8v-0.1c0.6-0.1,1.1-0.2,1.6-0.5l1.3,2.4c0.1,0.2,0.4,0.3,0.7,0.2c0.2-0.1,0.3-0.4,0.2-0.7L11,12.3c0.4-0.3,0.8-0.7,1.1-1.2l0,0 l2.3,1.7c0.2,0.2,0.5,0.1,0.7-0.1c0.2-0.2,0.1-0.5-0.1-0.7l-2.3-1.7l-0.1-0.1c0.2-0.4,0.3-0.9,0.3-1.4h2.7c0.3,0,0.5-0.2,0.5-0.5 C16,8,15.8,7.8,15.5,7.8z M7.9,12.4C5.8,12.4,4,10.7,4,8.5s1.8-3.9,3.9-3.9s3.9,1.7,3.9,3.9S10.1,12.4,7.9,12.4z" />
  </symbol>
  <symbol id="document" viewBox="0 0 100 100">
    <path d="M67.1,59.4c-0.7,0-1.3-0.1-2-0.1c-0.1,0-0.1,0-0.2-0.1c-8.4-6.8-13.2-15.9-15.3-21.3c0-0.1,0-0.2,0-0.3l0.9-2 l0,0C50.6,35.2,62.7,2.4,48,0.3c-13.7-2-10.1,25.8-5.8,38.2c0,0.1,0,0.2,0,0.2C32.8,64.2,25,70.4,24.4,70.8l0,0 C18.8,73.2-5.3,84.4,1,96.2c6.9,12.9,26.6-11,32.2-22.3c0-0.1,0.1-0.1,0.1-0.1c5.5-2.8,14.3-6,24.2-5.3l4.1,0.2l7.4,6.4 c0,0,25.6,21.6,30.7,2.2C103.1,64,81.2,60.4,67.1,59.4z M14.4,89.1c-3.5,3.2-7.1,5-8,4c-0.9-1,1.1-4.5,4.6-7.6s10.8-7.9,11.8-7 C23.7,79.4,17.9,85.8,14.4,89.1z M45,12.8c0-2.6,0.9-4.8,2-4.8c1.1,0,2,2.1,2,4.8s-1.9,17.1-3,17.1C44.9,29.9,45,15.5,45,12.8z M50.9,61.7c-4.7,0.6-9.4,2.3-13.4,4.1c-0.3,0.1-0.6-0.2-0.4-0.5l9.2-20.4c0.1-0.3,0.5-0.3,0.6,0C49,49.7,52.4,56.4,57,61.3l0.3,0.3 C55.2,61.4,53.1,61.4,50.9,61.7z M92.4,75.8c-0.6,1.7-1.8,3-7.5,0.8s-15.3-7.4-14.6-9c0.6-1.7,11.3,0.9,17,3 C92.9,72.7,93,74.2,92.4,75.8z" />
  </symbol>
  <symbol id="rest-area" viewBox="0 0 120 109">
    <path d="M114.2,79.1H101V57.7c10.9-0.9,19.5-9.5,19.5-19.9c0-6-2.9-11.6-7.7-15.4c0.7-1.6,1.1-3.3,1.1-5 C113.8,10,107,4,98.6,4s-15.2,6-15.2,13.4c0,1.9,0.4,3.7,1.3,5.4c-4.6,3.8-7.2,9.1-7.2,14.9c0,10.4,8.6,19,19.5,19.9V79H22.8V59.5 c11.3-0.6,20.3-9.3,20.3-20c0-6-2.9-11.6-7.7-15.3c0.7-1.6,1.1-3.3,1.1-5c0-7.4-6.8-13.4-15.2-13.4s-15.2,6-15.2,13.4 c0,1.9,0.4,3.7,1.3,5.4c-4.5,3.8-7.2,9.2-7.2,14.9c0,10.1,8.2,18.5,18.7,19.8V79H6.1c-3.3,0-6,2.7-6,6v17.8c0,3.3,2.7,6,6,6h108.1 c3.3,0,6-2.7,6-6V85.1C120.2,81.8,117.5,79.1,114.2,79.1z M81.4,37.8c0-5,2.5-9.7,6.9-12.8l0,0c0.9-0.6,1.1-1.9,0.5-2.8 c-1-1.4-1.5-3.1-1.5-4.8c0-5.2,5-9.4,11.2-9.4s11.2,4.2,11.2,9.4c0,1.3-0.3,2.5-0.9,3.6l0,0c-0.3,0.2-0.6,0.4-0.8,0.7 c-0.6,0.9-0.3,2.2,0.6,2.8c0.1,0,0.1,0.1,0.2,0.1l0,0c0,0,0,0,0.1,0c4.6,3,7.4,7.9,7.4,13c0,8.2-6.8,15-15.5,15.9v-8.9l8.3-8.2 c0.8-0.8,0.8-2,0-2.8s-2-0.8-2.8,0l-5.4,5.4V26c0-1.1-0.9-2-2-2s-2,0.9-2,2v9.2L92.6,31c-0.8-0.8-2-0.8-2.8,0s-0.8,2,0,2.8L97,41 v12.7C88.2,52.8,81.4,46,81.4,37.8z M4.1,39.5c0-5,2.5-9.7,6.9-12.8c0.1,0,0.1-0.1,0.2-0.2l0,0c0.7-0.7,0.9-1.8,0.3-2.6 c-1-1.4-1.5-3.1-1.5-4.8c0-5.2,5-9.4,11.2-9.4s11.2,4.2,11.2,9.4c0,1.3-0.3,2.5-0.9,3.6l0,0c-0.3,0.2-0.6,0.4-0.8,0.7 c-0.6,0.9-0.3,2.2,0.6,2.8c0.1,0,0.1,0.1,0.2,0.1l0,0c0,0,0,0,0.1,0c4.6,3,7.4,7.9,7.4,13c0,8.5-7.2,15.4-16.3,16V42.8 c0.2-0.1,0.3-0.2,0.5-0.4l6.8-6.8c0.8-0.8,0.8-2,0-2.8s-2-0.8-2.8,0l-4.5,4.5V26.1c0-1.1-0.9-2-2-2s-2,0.9-2,2v14.6l-6.2-6.2 c-0.8-0.8-2-0.8-2.8,0s-0.8,2,0,2.8l9,9v8.9C10.5,54.1,4.1,47.5,4.1,39.5z M41.6,104.9H6.1c-1.1,0-2-0.9-2-2v-3.6h17.8 c1.1,0,2-0.9,2-2s-0.9-2-2-2H4.1V85.1c0-1.1,0.9-2,2-2h24.1C32.8,84.6,45.8,93,41.6,104.9z M45.8,104.9c0.4-1.6,0.6-3.2,0.6-4.7 h14.9c1.1,0,2-0.9,2-2s-0.9-2-2-2H45.9c-1.3-5.4-5-9.8-8.8-13h50c-5.2,3.2-11.7,8.4-13.4,14.5c-0.7,2.5-0.6,4.9,0.3,7.3H45.8V104.9z M116.2,96.1H96.3c-1.1,0-2,0.9-2,2s0.9,2,2,2h19.9v2.7c0,1.1-0.9,2-2,2H78.5c-1.2-2-1.5-4.1-0.9-6.2c2.2-8,15.5-14.5,17.9-15.6 h18.8c1.1,0,2,0.9,2,2v11.1H116.2z" />
    <path d="M60.6,28.5c-7.9,0-14.3-6.4-14.3-14.3C46.4,6.4,52.8,0,60.6,0c7.9,0,14.3,6.4,14.3,14.3 C74.9,22.1,68.5,28.5,60.6,28.5z M60.6,4C55,4,50.4,8.6,50.4,14.3S55,24.6,60.7,24.6S71,20,71,14.3C70.9,8.6,66.3,4,60.6,4z" />
    <path d="M79.8,52.3c-0.6,0-1.5,0.2-4.5,1c0.7-5.1-4.5-7.7-6.7-8.7c-2.5-1.2-5.3-1.5-7.8-0.7c-2.6,0.8-4.8,2.7-6,5.3 c-0.1,0.2-0.3,0.5-0.4,0.8c-0.3,0.6-0.6,1.1-0.8,1.6c-6.1,0-11.1,4.7-11.1,10.4c0,5,2.9,8.8,7.3,10c0.9,0.3,1.9,0.4,2.9,0.4h30.9 c0.1,0,0.3,0,0.4,0c0.6-0.1,1.2-0.5,1.6-0.9c1.9-1.6,4-4.7,4.1-8.5C89.8,57,85.6,52.5,79.8,52.3z M83,68.4H57c-0.1,0-0.3,0-0.4,0 c-0.2,0-0.7,0-1.3,0c-0.3,0-0.7,0-1,0c-0.2,0-0.4,0-0.6,0c-0.5,0-0.9,0-1.1,0c-4.3,0-6.2-3.2-6.2-6.4c0-3.5,3.2-6.4,7.1-6.4l0,0 c0.2,0.1,0.4,0.3,0.7,0.3c1.1,0.3,2.2-0.4,2.4-1.5c0.1-0.4,0.9-1.9,1.2-2.5c0.2-0.4,0.4-0.8,0.5-1c0.8-1.7,2-2.8,3.6-3.3 c1.5-0.5,3.2-0.3,4.8,0.5c4.8,2.3,5.1,3.9,3.9,6.3c-0.1,0.3-0.3,0.5-0.4,0.8C69.8,56.1,70,57.4,71,58c0.3,0.2,0.7,0.3,1.1,0.3 c0.3,0,0.7-0.1,1-0.3l0,0c0.3-0.1,0.9-0.2,2.1-0.5c1.3-0.3,3.9-1.1,4.6-1.1c4.2,0.2,6,3.4,5.9,6.6C85.5,65.8,83.7,67.8,83,68.4z" />
  </symbol>
  <symbol id="medical-center" viewBox="0 0 68 68">
    <path d="M34,68C15.3,68,0,52.7,0,34S15.3,0,34,0s34,15.3,34,34S52.7,68,34,68z M34,4C17.5,4,4,17.5,4,34s13.5,30,30,30 s30-13.5,30-30S50.5,4,34,4z" />
    <polygon points="62,30 62,38 38,38 38,62 30,62 30,38 6,38 6,30 30,30 30,6 38,6 38,30 " />
  </symbol>
  <symbol id="halfmoon" viewBox="0 0 16 17">
    <path d="M16,13.1c-1.5,2.3-4.3,3.9-7.3,3.9C3.9,17,0,13.2,0,8.4C0,4.2,3.2,0.7,7.3,0C5.8,1.4,5,3.3,5,5.4 c0,4.4,4,7.9,8.9,7.9C14.7,13.4,15.4,13.3,16,13.1z" />
  </symbol>
  <symbol id="underground-parking" viewBox="0 0 128.5 110.7">
    <rect x="119.8" y="6.8" width="4.5" height="44.4" />
    <rect x="4.6" y="6.8" width="4.5" height="44.4" />
    <rect x="119.8" y="59.2" width="4.5" height="44.4" />
    <rect x="4.6" y="59.2" width="4.5" height="44.4" />
    <rect x="0" y="53.5" width="128.5" height="4.5" />
    <rect x="0" y="106.2" width="128.5" height="4.5" />
    <rect x="0" y="0" width="128.5" height="4.5" />
    <g>
      <path d="M101.4,28H88.5c-3.3-7.3-16-11.9-16.5-12.1l-0.2-0.1l-20.9-0.4C33.5,14.7,27,23.9,24.9,28 c-3.5,0-6.4,2.9-6.4,6.5v4.2h3c1.7,0,3.1,1.4,3.1,3.2v1.8c0,0.6-0.2,1.1-0.5,1.6h6.7c0.5-4.7,4.4-8.4,9-8.4s8.5,3.7,9,8.4h35.7 c0.5-4.7,4.4-8.4,9-8.4s8.5,3.7,9,8.4h4.4c-0.3-0.5-0.5-1-0.5-1.6v-1.8c0-1.7,1.4-3.2,3.1-3.2h2.4C112.1,32.8,107.3,28,101.4,28z M41.8,28H28.3c1.8-3.1,6.1-7.8,15-9.2L41.8,28z M44.8,28l1.6-9.5c1.3-0.1,2.8-0.1,4.3,0L63,18.7l0.6,9.3H44.8z M66.6,28L66,18.7 l5.2,0.1c3.3,1.2,11,4.7,13.9,9.2H66.6z" />
      <path d="M21,45.2h-4c-1.2,0-2.2-1-2.2-2.2v-1.5c0-1.2,1-2.2,2.2-2.2h4c1.2,0,2.2,1,2.2,2.2V43 C23.2,44.2,22.2,45.2,21,45.2z" />
      <path d="M114.2,45.2h-4.1c-1.2,0-2.2-1-2.2-2.2v-1.5c0-1.2,1-2.2,2.2-2.2h4.1c1.2,0,2.2,1,2.2,2.2V43 C116.5,44.2,115.4,45.2,114.2,45.2z" />
      <path d="M39.8,51.7c-3.9,0-7.1-3.2-7.1-7.1s3.2-7.1,7.1-7.1s7.1,3.2,7.1,7.1S43.7,51.7,39.8,51.7z M39.8,40.5 c-2.2,0-4.1,1.8-4.1,4.1s1.8,4.1,4.1,4.1s4.1-1.8,4.1-4.1C43.9,42.4,42.1,40.5,39.8,40.5z" />
      <circle cx="39.8" cy="44.6" r="1.7" />
      <path d="M93.7,51.7c-3.9,0-7.1-3.2-7.1-7.1s3.2-7.1,7.1-7.1s7.1,3.2,7.1,7.1S97.6,51.7,93.7,51.7z M93.7,40.5 c-2.3,0-4.1,1.8-4.1,4.1s1.8,4.1,4.1,4.1s4.1-1.8,4.1-4.1C97.8,42.4,96,40.5,93.7,40.5z" />
      <circle cx="93.7" cy="44.6" r="1.7" />
    </g>
    <g>
      <path d="M101.4,80.7H88.5c-3.3-7.3-16-11.9-16.5-12.1l-0.2-0.1l-20.9-0.4c-17.4-0.7-23.9,8.6-26,12.6 c-3.5,0-6.4,2.9-6.4,6.5v4.2h3c1.7,0,3.1,1.4,3.1,3.2v1.8c0,0.6-0.2,1.1-0.5,1.6h6.7c0.5-4.7,4.4-8.4,9-8.4s8.5,3.7,9,8.4h35.7 c0.5-4.7,4.4-8.4,9-8.4s8.5,3.7,9,8.4h4.4c-0.3-0.5-0.5-1-0.5-1.6v-1.8c0-1.7,1.4-3.2,3.1-3.2h2.4 C112.1,85.5,107.3,80.7,101.4,80.7z M41.8,80.7H28.3c1.8-3.1,6.1-7.8,15-9.2L41.8,80.7z M44.8,80.7l1.6-9.5c1.3-0.1,2.8-0.1,4.3,0 l12.2,0.2l0.6,9.3H44.8z M66.6,80.7L66,71.4l5.2,0.1c3.3,1.2,11,4.7,13.9,9.2C85.1,80.7,66.6,80.7,66.6,80.7z" />
      <path d="M21,98h-4c-1.2,0-2.2-1-2.2-2.2v-1.5c0-1.2,1-2.2,2.2-2.2h4c1.2,0,2.2,1,2.2,2.2v1.4C23.2,97,22.2,98,21,98z" />
      <path d="M114.2,98h-4.1c-1.2,0-2.2-1-2.2-2.2v-1.5c0-1.2,1-2.2,2.2-2.2h4.1c1.2,0,2.2,1,2.2,2.2v1.4 C116.5,97,115.4,98,114.2,98z" />
      <path d="M39.8,104.4c-3.9,0-7.1-3.2-7.1-7.1s3.2-7.1,7.1-7.1s7.1,3.2,7.1,7.1S43.7,104.4,39.8,104.4z M39.8,93.3 c-2.2,0-4.1,1.8-4.1,4.1c0,2.3,1.8,4.1,4.1,4.1s4.1-1.8,4.1-4.1S42.1,93.3,39.8,93.3z" />
      <circle cx="39.8" cy="97.3" r="1.7" />
      <path d="M93.7,104.4c-3.9,0-7.1-3.2-7.1-7.1s3.2-7.1,7.1-7.1s7.1,3.2,7.1,7.1S97.6,104.4,93.7,104.4z M93.7,93.3 c-2.3,0-4.1,1.8-4.1,4.1c0,2.3,1.8,4.1,4.1,4.1s4.1-1.8,4.1-4.1S96,93.3,93.7,93.3z" />
      <circle cx="93.7" cy="97.3" r="1.7" />
    </g>
  </symbol>
  <symbol id="purchases" viewBox="0 0 64 76">
    <path d="M57,11.1l-8.2,0.7C46.6,5.5,41.7,1,36,1c-0.7,0-1.3,0.1-2,0.2C32.5,0.4,30.8,0,29,0c-6.1,0-11.3,5.1-13.2,12.2 H5L0,73l51,3h1l6.9-7.5H64L57,11.1z M29,3c0.2,0,0.4,0,0.6,0c-2.9,1.9-5.2,5.2-6.5,9.1h-4.2C20.6,6.8,24.5,3,29,3z M17.9,34.6 l-8.1-6l9.9-13.8h6.6l1.5,6L17.9,34.6z M26.3,12.2c1.5-3.9,4.1-6.8,7.3-7.7c2.5,1.5,4.4,4.4,5.5,7.7H26.3z M42.2,12.2 c-0.8-3-2.3-5.8-4.2-7.9c3.3,0.8,6.2,3.9,7.7,7.9H42.2z M51,74.5V12.2h4l0,0l2,55.5L51,74.5z" />
    <circle cx="21.5" cy="21" r="2.5" />
  </symbol>
  <symbol id="pin" viewBox="0 0 34 56">
    <path d="M34,16.9c0,2.8-0.7,5.5-1.9,7.8L17.3,55.7L2.7,26.1C2,25,1.4,23.8,1,22.6l0,0c-0.7-1.8-1-3.7-1-5.7 C0,7.6,7.6,0,17,0S34,7.6,34,16.9z" />
  </symbol>
  <symbol id="restaurants" viewBox="0 0 79 75">
    <path d="M6.2,49H2.8c-1.2,0-2.3,1-2.3,2.3v14.4c0,1.2,1,2.3,2.3,2.3h3.4c1.2,0,2.3-1,2.3-2.3V51.3C8.5,50,7.5,49,6.2,49 z M6,54c-0.8,0-1.5-0.7-1.5-1.5S5.2,51,6,51s1.5,0.7,1.5,1.5S6.8,54,6,54z" />
    <path d="M48.5,5V3H51c0.8,0,1.5-0.7,1.5-1.5S51.8,0,51,0h-6c-0.8,0-1.5,0.7-1.5,1.5S44.2,3,45,3h2.5v2 c-16.6,0.2-30,13.1-30,29c0,1.2,0.1,2.3,0.2,3.5H21c0-0.7-0.1-1.3-0.1-2C21,21,31.6,9.1,45.4,6.9C34,11.7,26,23.4,26,37 c0,0.2,0,0.3,0,0.5h52.3c0.2-1.2,0.2-2.3,0.2-3.5C78.5,18.1,65.1,5.3,48.5,5z M69.7,25.5c-0.2-2.4-0.9-5-2.2-7.6 C66,15,64.1,12.7,62,11.2c3.5,0.9,7.2,4.1,9.5,8.7c1,1.9,1.6,3.8,2,5.6H69.7z" />
    <path d="M67.7,58.8L41.5,74c-0.8,0.4-1.7,0.6-2.5,0.4c-0.6,0.1-1.2,0-1.8-0.3c0,0-16.5-5.1-16.7-5.1l-9.1-2 c-1,0-1.9-0.8-1.9-1.9V51c0-1.1,0.3-2.1,0.9-3c1.5-2.4,4.8-4,8.6-4c3,0,5.2,2,7.5,2.7c1,0.3,3.6,1.3,3.6,1.3l0.4,0.1l12.3,3.6 c1.9,0.6,3,2.6,2.5,4.6l-0.4,1.2c-0.6,1.9-2.6,3-4.6,2.5l-7.4-2.2c-1.2-0.4-2.4,0.5-2.4,1.8l0,0c0,0.7,0.4,1.4,1.1,1.7l7.4,3.3 c0.5,0.2,1.2,0.2,1.7-0.1l22.7-13.1c1.8-1,4-0.4,5,1.3l0.6,1.1C70,55.6,69.4,57.8,67.7,58.8z" />
    <polygon points="30.5,48 30.5,48.1 30.1,48 " />
  </symbol>
  <symbol id="location-center" viewBox="0 0 115 112">
    <g>
      <path d="M113.5,111.6H1.7c-0.4,0-0.9-0.2-1.1-0.5c-0.3-0.3-0.4-0.8-0.3-1.3L9,47c0.1-0.7,0.7-1.4,1.5-1.4h21 c0.8,0,1.5,0.7,1.5,1.6s-0.7,1.6-1.5,1.6H11.7l-8.4,59.6h108.4l-6.4-59.6H83.8c-0.8,0-1.5-0.7-1.5-1.6c0-0.8,0.7-1.6,1.5-1.6h22.9 c0.8,0,1.4,0.6,1.5,1.4l6.8,62.8c0,0.4-0.1,0.8-0.4,1.3S113.9,111.6,113.5,111.6z" />
      <g>
        <path d="M23.2,85c-0.3,0-0.6-0.1-0.9-0.3c-0.7-0.5-0.8-1.4-0.3-2.1c1.7-2.2,3.5-3.8,3.6-3.9c0.6-0.5,1.6-0.5,2.1,0.2 c0.5,0.6,0.5,1.6-0.2,2.1c0,0-1.7,1.4-3.2,3.4C24.1,84.8,23.6,85,23.2,85z" />
        <path d="M102,63.9c-0.2-0.8-1-1.3-1.8-1.1c-0.8,0.2-1.3,1-1.1,1.8c0.1,0.5,0.2,1,0.2,1.6c0,1.3-0.4,3.9-3,6 c-0.6,0.5-0.7,1.5-0.2,2.1c0.3,0.4,0.7,0.5,1.2,0.5c0.3,0,0.7-0.1,0.9-0.3c3.6-2.9,4.1-6.5,4.1-8.4 C102.2,65.4,102.1,64.6,102,63.9z M87.5,75.2c-2.1,0.2-4.3,0.2-6.8-0.1c-1-0.1-2.1-0.1-3.2-0.2l0,0c-0.8,0-1.5,0.7-1.5,1.5 s0.7,1.5,1.5,1.5c1,0,2,0,3,0.1c1.5,0.1,2.9,0.2,4.3,0.2c1.1,0,2.1,0,3.1-0.1c0.8-0.1,1.4-0.8,1.4-1.6 C89.1,75.7,88.3,75.1,87.5,75.2z M49.6,84.3c-0.4-0.7-1.3-1-2-0.6c-3,1.6-6,3.3-9,5.2c-0.7,0.5-0.9,1.4-0.5,2.1 c0.3,0.4,0.8,0.7,1.3,0.7c0.3,0,0.6-0.1,0.8-0.2c2.9-1.9,5.8-3.6,8.7-5.1C49.7,86,50,85,49.6,84.3z M32.3,95.3 c-0.3-0.8-1.1-1.2-1.9-0.9c-1.2,0.4-2.4,0.4-3.6,0c-1.9-0.7-3.2-1.5-4-2.4c-0.5-0.7-1.5-0.8-2.1-0.3s-0.8,1.5-0.2,2.1 c1.1,1.4,2.9,2.6,5.3,3.4c0.9,0.3,1.9,0.5,2.8,0.5c1,0,1.9-0.2,2.8-0.5C32.2,96.9,32.6,96,32.3,95.3z" />
        <path d="M82.2,24.9c0-13.6-11.1-24.7-24.7-24.7c-13.7,0-24.9,11.1-24.9,24.7c0,0.4-0.1,3.8,0,4.8l0,0 c1.5,16.8,22.7,48.6,23.6,50.1l0,0c-0.3,0.4-0.4,0.9-0.2,1.4c0.2,0.6,0.8,1,1.4,1c0.2,0,0.4,0,0.5-0.1c3.3-1.3,6.5-2.3,9.5-3 c0.8-0.2,1.3-1,1.1-1.8c-0.2-0.8-1-1.3-1.8-1.1c-2.6,0.6-5.3,1.4-8,2.4l0,0C61.3,75,80,46.3,82.1,30v-0.1 C82.3,29,82.2,25.3,82.2,24.9z M79.1,29.4c-1.6,14-17.8,39.9-21.9,46.3c-5-7.9-20.4-33-21.6-46.3c0-0.1-0.1-1.9-0.1-2.9 c0-0.1,0-1.3,0-1.7c0-12,9.8-21.7,21.9-21.7c12,0,21.7,9.7,21.7,21.7C79.2,25.3,79.3,28.3,79.1,29.4z" />
        <path d="M92.7,60c-0.2,0-0.3,0-0.5-0.1c-1.7-0.6-3.2-0.8-4.4-0.7c-0.8,0-1.5-0.6-1.6-1.4c-0.1-0.8,0.6-1.5,1.4-1.6 c1.5-0.1,3.4,0.2,5.5,0.9c0.8,0.3,1.2,1.1,1,1.9C93.9,59.6,93.3,60,92.7,60z" />
      </g>
      <path d="M58.3,41.5c-8,0-14.5-6.5-14.5-14.5s6.5-14.5,14.5-14.5S72.8,19,72.8,27S66.3,41.5,58.3,41.5z M58.3,15.5 c-6.3,0-11.5,5.2-11.5,11.5S52,38.5,58.3,38.5S69.8,33.3,69.8,27S64.6,15.5,58.3,15.5z" />
    </g>
  </symbol>
  <symbol id="arrow" viewBox="0 0 57 26">
    <path d="M56.6,14L45,25.6c-0.5,0.5-1.4,0.5-1.9,0c-0.3-0.3-0.4-0.6-0.4-1c0-0.3,0.1-0.7,0.4-1l8.9-8.9H0V11h51.8 l-8.7-8.7c-0.5-0.5-0.5-1.4,0-1.9c0.3-0.3,0.6-0.4,1-0.4c0.4,0,0.7,0.1,1,0.4L56.7,12l0,0C57.1,12.6,57.1,13.5,56.6,14z" />
  </symbol>
  <symbol id="fitness" viewBox="0 0 153 68">
    <g>
      <path d="M20.5,63.5L20.5,63.5c-2.2,0-4-1.8-4-4v-47c0-2.2,1.8-4,4-4l0,0c2.2,0,4,1.8,4,4v47 C24.5,61.7,22.7,63.5,20.5,63.5z" />
      <path d="M13.5,18v39c0,1.4-1.1,2.5-2.5,2.5S8.5,58.4,8.5,57V38.5H2.7c-1.2,0-2.2-1-2.2-2.2v-0.6c0-1.2,1-2.2,2.2-2.2 h5.8V18c0-1.4,1.1-2.5,2.5-2.5c0.7,0,1.3,0.3,1.8,0.7C13.3,16.6,13.5,17.3,13.5,18z" />
      <path d="M125.5,8v52c0,4.1-3.4,7.5-7.5,7.5s-7.5-3.4-7.5-7.5V37.3c-0.3,0.1-0.7,0.2-1,0.2h-67V60 c0,4.1-3.4,7.5-7.5,7.5s-7.5-3.4-7.5-7.5V8c0-4.1,3.4-7.5,7.5-7.5c2.1,0,3.9,0.8,5.3,2.2c1.4,1.4,2.2,3.2,2.2,5.3v23.5h67 c0.3,0,0.7,0.1,1,0.2V8c0-2.1,0.8-3.9,2.2-5.3c1.4-1.4,3.2-2.2,5.3-2.2C122.1,0.5,125.5,3.9,125.5,8z" />
      <path d="M132.5,63.5L132.5,63.5c2.2,0,4-1.8,4-4v-47c0-2.2-1.8-4-4-4l0,0c-2.2,0-4,1.8-4,4v47 C128.5,61.7,130.3,63.5,132.5,63.5z" />
      <path d="M139.5,18v39c0,1.4,1.1,2.5,2.5,2.5s2.5-1.1,2.5-2.5V38.5h5.8c1.2,0,2.2-1,2.2-2.2v-0.6c0-1.2-1-2.2-2.2-2.2 h-5.8V18c0-1.4-1.1-2.5-2.5-2.5c-0.7,0-1.3,0.3-1.8,0.7C139.7,16.6,139.5,17.3,139.5,18z" />
    </g>
  </symbol>
  <symbol id="dry-cleaning" viewBox="0 0 65 82">
    <path d="M61.5,29.5c0-7.2-5.8-13-12.8-13H34.5v-3c3.4-0.4,6-3.2,6-6.7c0-3.7-3-6.8-6.8-6.8S27,3,27,6.8 c0,0.6,0.1,1.2,0.2,1.7c0.2,0.8,1,1.3,1.8,1.1s1.3-1,1.1-1.8C30,7.4,30,7.1,30,6.8C30,4.7,31.7,3,33.8,3s3.8,1.7,3.8,3.8 s-1.7,3.8-3.8,3.8c-0.2,0-0.4,0-0.5,0c-0.7-0.1-1.4,0.4-1.6,1l-0.1,5H17.2c-7.1,0-12.8,5.8-12.8,12.9l-3.9,41 c0,7.1,10,11.5,17.2,11.5h29.5c7.2,0,17.2-4.4,17.2-11.6L61.5,29.5z M47.3,80H17.7c-6.2,0-15.2-3.7-15.2-9.4l3.9-41.1 c0-6.1,4.8-11,10.8-11h31.5c6,0,10.8,4.9,10.8,11.1l3,40.9C62.5,76.3,53.5,80,47.3,80z" />
    <polygon points="34.5,26 37.5,29 34,46.5 30.5,29 33.5,26 30.5,23 34,19.5 37.5,23 " />
    <path d="M61,67c0,3.7-2.5,6.2-5.9,7.8l-4.5-26.4L51.5,76c-1.7,0.4-3.4,0.5-5,0.5h-27c-1.4,0-2.8-0.2-4.1-0.5l1.9-27.6 L12.7,75C9.3,73.2,7,70.1,7,66l3-29c0-6.6,2.9-16.5,9.5-16.5h6.7L34.1,59L42,20.5h4.5C53.1,20.5,57,30.4,57,37L61,67z" />
  </symbol>
</svg>
