<svg xmlns="http://www.w3.org/2000/svg" baseProfile="tiny-ps" version="1.2" viewBox="0 0 445 215"><style>.shp0,.shp5{fill:#fff;stroke:#fff;stroke-linecap:round;stroke-linejoin:round;stroke-width:9.432}.shp5{stroke-width:6.67}.shp6{fill:#570202}.shp8{fill:none;stroke:#fff;stroke-linecap:round;stroke-linejoin:round;stroke-width:5.503}</style><path d="M241.47 89.03H199.4V33.24h42.07v55.79z" class="shp0"/><path d="M177.71 15.25l-.47.25v83.09c12.71-5.8 26.81-9.2 41.67-9.61V78.42c-7.97-.85-14.08-5.74-14.08-11.65 0-3.24 1.85-6.19 4.83-8.32-1.37-1.53-2.15-2.97-2.15-5.29 0-2.33 1.52-4.83 3.98-6.61-.79-1.09-1.24-2.4-1.24-5.25 0-2.84 3.67-7.92 11.14-7.92 7.46 0 11.14 5.08 11.14 7.92 0 2.85-.45 4.16-1.24 5.25 2.47 1.78 3.98 4.28 3.98 6.61 0 2.32-.79 3.76-2.16 5.29 2.99 2.13 4.83 5.07 4.83 8.32 0 5.91-6.1 10.8-14.07 11.65v10.54c14.39.25 28.08 3.3 40.5 8.62V15.25h-19.08v13.23l-6.5-.25V4.84h-36.23l.01 28.4h-6.33l-.01-17.99h-18.52z" class="shp0"/><path d="M196.23 15.25h-18.99v83.34l8.24-3.35 8.37-2.62 8.72-1.9V28.23l-6.34.25V15.25zM245.39 15.25h19v83.34l-8.24-3.35-8.37-2.62-8.71-1.9V28.23l6.32.25V15.25zM52.49 116.87l1.44 17.18h-1.44c-1.63-5.04-3.96-8.69-6.97-10.95-3.01-2.28-6.66-3.4-10.96-3.4-3.19 0-6.05.63-8.56 1.88a19.32 19.32 0 0 0-6.41 5.23c-1.74 2.24-3.08 4.86-4.01 7.88-.91 3.01-1.36 6.29-1.36 9.83 0 5.16 1.02 9.9 3.04 14.22 1 2.18 2.16 4.05 3.52 5.61 1.32 1.55 2.77 2.85 4.32 3.87 1.55 1.02 3.18 1.77 4.88 2.25 1.69.48 3.39.73 5.1.73 4 0 7.74-1.01 11.25-3.02v-15.79c0-1.38-.04-2.49-.14-3.35-.11-.86-.27-1.53-.49-2.02-.2-.52-.49-.89-.8-1.15-.32-.27-.69-.52-1.14-.77-.88-.42-2.38-.65-4.55-.65v-1.56h21.06v1.56h-1.01c-.93 0-1.7.1-2.33.31-.65.18-1.19.57-1.6 1.13-.42.57-.71 1.38-.9 2.42-.18 1.02-.26 2.4-.26 4.08v16.69c-1.56.84-3.08 1.59-4.58 2.2-1.5.61-3 1.1-4.5 1.47-3.13.8-6.45 1.21-10.01 1.21-4.53 0-8.65-.72-12.35-2.11-3.67-1.39-6.84-3.34-9.47-5.83a25.616 25.616 0 0 1-6.1-8.77c-1.43-3.37-2.15-7.03-2.15-11 0-4.76 1.15-9.37 3.47-13.81 2.65-5.22 6.39-9.23 11.17-12.09 4-2.31 8.7-3.48 14.13-3.48 1.07 0 2.02.04 2.86.1.83.06 1.71.18 2.6.35.91.19 1.89.45 2.93.78 1.06.34 2.35.8 3.86 1.35 1.53.62 2.53.88 3.05.85.48 0 .9-.23 1.25-.68.37-.48.6-1.38.68-2.75h1.48zM74.67 134.71v8.31c3.12-5.54 6.28-8.31 9.5-8.31.72 0 1.4.12 2.01.37.63.25 1.16.58 1.61.98.47.44.84.9 1.09 1.46.26.53.38 1.11.38 1.7 0 1.05-.35 1.93-1.04 2.65-.69.71-1.53 1.09-2.49 1.09-.43 0-.94-.15-1.51-.44-.59-.27-1.14-.59-1.67-.96-.56-.35-1.05-.68-1.51-.94-.45-.29-.8-.43-1.05-.43-.71 0-1.54.57-2.51 1.74-.95 1.17-1.9 2.65-2.81 4.45v17.72c0 1.09.08 2.07.22 2.95.12.89.43 1.62.86 2.24.45.63 1.08 1.1 1.93 1.46.87.32 2.01.51 3.46.51v1.43H62.3v-1.43c1.2 0 2.16-.09 2.89-.25.74-.16 1.33-.47 1.76-.96.45-.47.76-1.18.89-2.08.17-.9.25-2.09.25-3.57v-14.3c0-2.16-.01-3.86-.08-5.11-.06-1.23-.14-2.08-.22-2.53-.39-1.59-1.29-2.4-2.68-2.4-.45 0-.88.06-1.33.15-.42.1-.94.26-1.48.44l-.37-1.43 11.06-4.51h1.68z" class="shp0"/><path fill-rule="evenodd" d="M112.13 167.4c-1.93 1.44-3.47 2.6-4.66 3.47-1.16.86-2 1.39-2.47 1.58a11.02 11.02 0 0 1-4.61 1.02c-1.27 0-2.43-.23-3.5-.69a8.29 8.29 0 0 1-2.75-1.91c-.77-.82-1.39-1.83-1.82-2.97-.45-1.17-.65-2.48-.65-3.93 0-1.68.33-3.17.98-4.5.65-1.32 1.68-2.53 3.04-3.63 1.39-1.09 3.17-2.12 5.37-3.04 3.41-1.6 7.1-3.12 11.07-4.56v-1.45c0-1.85-.17-3.39-.45-4.62-.31-1.25-.75-2.23-1.35-2.96-.61-.75-1.33-1.28-2.17-1.57-.83-.31-1.79-.45-2.85-.45-1.72 0-3.08.45-4.09 1.37-.99.93-1.49 1.97-1.49 3.12l.13 2.36c0 1.23-.31 2.17-.92 2.85-.63.66-1.45.98-2.49.98-1 0-1.82-.34-2.45-1.04-.63-.7-.96-1.66-.96-2.84 0-1.14.3-2.24.9-3.35.59-1.11 1.47-2.09 2.63-2.98 1.14-.88 2.55-1.6 4.21-2.13 1.65-.53 3.57-.82 5.71-.82 2.83 0 5.23.42 7.21 1.27 1.97.84 3.41 2.28 4.28 4.33.47 1.17.72 3.52.72 7.09v12.49c0 2.11.03 3.76.08 4.91.07 1.12.16 1.96.33 2.47.16.54.36.85.61.95.23.1.53.14.9.14.26 0 .53-.04.78-.12.22-.08.5-.24.83-.47.31-.25.67-.57 1.1-1.01l1.64-1.64v2.28c-2.99 4-5.84 6.01-8.55 6.01-1.27 0-2.31-.45-3.11-1.35-.8-.91-1.18-2.44-1.18-4.66zm0-2.64v-14.05c-2.81 1.1-5.99 2.56-9.58 4.32a7.497 7.497 0 0 0-3.08 2.87c-.74 1.25-1.1 2.63-1.1 4.15 0 .96.16 1.86.46 2.68.33.83.74 1.54 1.27 2.14.51.59 1.12 1.07 1.82 1.41.69.33 1.42.52 2.19.52 2.03 0 4.69-1.36 8.02-4.04z" class="shp0"/><path d="M138.42 142.52c4.27-5.21 8.37-7.81 12.27-7.81 1.35 0 2.62.25 3.78.69 1.14.48 2.16 1.23 3.02 2.28.84 1.07 1.51 2.51 2 4.27.47 1.78.71 4 .71 6.64v15.76c0 1.59.09 2.85.27 3.77.18.92.47 1.62.89 2.07.41.48.98.76 1.7.88.74.13 1.65.19 2.76.19v1.43h-18.11v-1.43h.72c1.18 0 2.14-.13 2.83-.34.69-.22 1.21-.59 1.55-1.12.35-.51.56-1.24.66-2.13.1-.91.16-2.01.16-3.32v-15.1c0-3.4-.43-5.85-1.28-7.32-.86-1.48-2.33-2.21-4.42-2.21-3.22 0-6.39 1.74-9.51 5.21v19.42c0 1.55.06 2.78.16 3.68.11.91.35 1.6.74 2.08.41.47 1 .8 1.79.92.8.14 1.9.23 3.29.23v1.43h-18.17v-1.43h.78c.96 0 1.74-.13 2.37-.34.61-.22 1.1-.59 1.45-1.12.36-.51.61-1.24.76-2.13.13-.91.2-2.01.2-3.32v-13.64c0-2.65-.04-4.7-.13-6.13-.07-1.44-.22-2.51-.45-3.17-.2-.65-.51-1.04-.89-1.16-.37-.13-.84-.19-1.39-.19-.41 0-.82.06-1.23.15-.43.1-.91.26-1.47.44l-.61-1.43 11.07-4.51h1.73v7.81z" class="shp0"/><path fill-rule="evenodd" d="M194.66 168.55c-1.79 1.89-3.55 3.24-5.25 4.07-1.69.81-3.53 1.22-5.53 1.22-1.98 0-3.88-.45-5.67-1.36-1.8-.9-3.39-2.15-4.76-3.75-1.36-1.6-2.47-3.5-3.28-5.72-.82-2.19-1.23-4.59-1.23-7.2 0-2.56.43-5.1 1.29-7.61.85-2.5 2.06-4.75 3.61-6.74 1.56-2.01 3.41-3.63 5.6-4.88 2.16-1.23 4.57-1.87 7.2-1.87 3.22 0 5.9 1.02 8.02 3.07v-6.79c0-2.56-.06-4.53-.16-5.92-.1-1.37-.24-2.38-.45-3.04-.2-.63-.49-1.02-.86-1.12-.39-.13-.83-.19-1.35-.19-.79 0-1.71.22-2.75.66l-.53-1.44 10.94-4.51h1.79v42.66c0 2.57.05 4.55.13 5.95.08 1.39.22 2.44.45 3.09.21.66.49 1.07.86 1.22.36.11.81.2 1.37.2.69 0 1.65-.23 2.88-.65l.42 1.37-10.9 4.57h-1.84v-5.29zm0-2.83v-18.99c-.12-1.52-.45-2.88-.99-4.04-.54-1.2-1.21-2.19-2.01-3.02-.79-.82-1.67-1.44-2.63-1.86-.96-.42-1.92-.62-2.86-.62-1.41 0-2.69.37-3.9 1.11-1.18.74-2.24 1.78-3.14 3.16-.9 1.35-1.6 2.97-2.13 4.86-.51 1.88-.77 3.98-.77 6.29 0 2.73.33 5.13.99 7.22.66 2.09 1.52 3.84 2.58 5.25 1.04 1.44 2.25 2.51 3.61 3.23 1.35.71 2.76 1.08 4.19 1.08 2.43 0 4.78-1.23 7.06-3.67zM244.54 147.15v15.86c0 3.49.39 5.64 1.14 6.44 1.05 1.15 2.57 1.75 4.61 1.75h2.08v1.49H229.1v-1.49h2.04c2.27 0 3.9-.74 4.9-2.24.58-.88.84-2.86.84-5.95v-35.25c0-3.4-.35-5.54-1.07-6.38-1.07-1.21-2.63-1.81-4.67-1.81h-2.04v-1.5h19.92c4.79 0 8.62.52 11.48 1.56 1.4.5 2.71 1.15 3.92 2.02a14.3 14.3 0 0 1 3.19 3.07c.89 1.17 1.59 2.48 2.12 3.9.51 1.41.78 2.95.78 4.59 0 2.22-.4 4.23-1.15 6.07-.75 1.85-1.86 3.43-3.29 4.76-1.43 1.31-3.18 2.34-5.26 3.08-2.07.75-4.45 1.12-7.13 1.12-2.57 0-5.63-.37-9.14-1.09zm0-2.33c1.44.26 2.69.49 3.77.62 1.08.14 2 .22 2.82.22 1.39 0 2.69-.31 3.94-.88 1.22-.58 2.32-1.38 3.27-2.4.91-1.03 1.67-2.26 2.2-3.69.53-1.46.8-3.02.8-4.7 0-1.98-.29-3.77-.88-5.33-.61-1.58-1.43-2.89-2.47-3.98-1.02-1.09-2.25-1.9-3.63-2.46-1.41-.55-2.92-.84-4.56-.84-1.34 0-3.1.25-5.26.72v22.72zM296.75 167.4c-1.92 1.44-3.47 2.6-4.64 3.47-1.18.86-2.01 1.39-2.48 1.58-1.47.67-3.02 1.02-4.61 1.02-1.27 0-2.43-.23-3.49-.69a8.332 8.332 0 0 1-2.76-1.91 8.748 8.748 0 0 1-1.81-2.97c-.46-1.17-.66-2.48-.66-3.93 0-1.68.33-3.17.98-4.5.65-1.32 1.68-2.53 3.04-3.63 1.39-1.09 3.16-2.12 5.37-3.04 3.41-1.6 7.11-3.12 11.06-4.56v-1.45c0-1.85-.16-3.39-.45-4.62-.3-1.25-.75-2.23-1.34-2.96-.61-.75-1.33-1.28-2.16-1.57-.84-.31-1.8-.45-2.86-.45-1.72 0-3.08.45-4.09 1.37-1 .93-1.49 1.97-1.49 3.12l.13 2.36c0 1.23-.31 2.17-.92 2.85-.63.66-1.45.98-2.49.98-1.01 0-1.83-.34-2.45-1.04-.63-.7-.96-1.66-.96-2.84 0-1.14.3-2.24.89-3.35.59-1.11 1.48-2.09 2.64-2.98 1.15-.88 2.55-1.6 4.21-2.13 1.65-.53 3.57-.82 5.71-.82 2.84 0 5.22.42 7.21 1.27 1.98.84 3.4 2.28 4.28 4.33.47 1.17.72 3.52.72 7.09v12.49c0 2.11.02 3.76.08 4.91.06 1.12.17 1.96.32 2.47.17.54.38.85.62.95.22.1.53.14.9.14.26 0 .53-.04.78-.12.22-.08.51-.24.83-.47.31-.25.68-.57 1.11-1.01.4-.41.95-.96 1.62-1.64v2.28c-2.97 4-5.83 6.01-8.55 6.01-1.27 0-2.31-.45-3.1-1.35-.8-.91-1.19-2.44-1.19-4.66zm0-2.64v-14.05c-2.79 1.1-5.98 2.56-9.57 4.32a7.558 7.558 0 0 0-3.08 2.87c-.73 1.25-1.1 2.63-1.1 4.15 0 .96.16 1.86.46 2.68.33.83.74 1.54 1.27 2.14.51.59 1.12 1.07 1.82 1.41.69.33 1.43.52 2.19.52 2.03 0 4.69-1.36 8.01-4.04z" class="shp0"/><path d="M324.96 115.43v48.92c0 1.67.11 2.96.27 3.89.19.92.51 1.63.97 2.07.46.47 1.06.74 1.83.82.75.08 1.71.13 2.85.13v1.43h-18v-1.43c1.21 0 2.16-.11 2.88-.29.71-.17 1.27-.51 1.66-1.05.36-.51.61-1.23.73-2.13.13-.9.19-2.05.19-3.44v-33.47c0-2.53-.05-4.48-.15-5.87-.1-1.38-.26-2.38-.49-3.04-.23-.63-.51-1-.85-1.1-.38-.11-.8-.15-1.33-.15-.76 0-1.64.22-2.64.66l-.65-1.44 10.94-4.51h1.79z" class="shp0"/><path fill-rule="evenodd" d="M355.96 167.4c-1.92 1.44-3.48 2.6-4.66 3.47-1.16.86-2 1.39-2.47 1.58-1.47.67-3.02 1.02-4.61 1.02-1.26 0-2.43-.23-3.49-.69a8.332 8.332 0 0 1-2.76-1.91c-.77-.82-1.39-1.83-1.82-2.97-.44-1.17-.65-2.48-.65-3.93 0-1.68.33-3.17.98-4.5.65-1.32 1.68-2.53 3.05-3.63 1.38-1.09 3.16-2.12 5.36-3.04 3.41-1.6 7.1-3.12 11.07-4.56v-1.45c0-1.85-.16-3.39-.46-4.62-.3-1.25-.75-2.23-1.35-2.96-.6-.75-1.32-1.28-2.16-1.57-.82-.31-1.79-.45-2.85-.45-1.72 0-3.08.45-4.09 1.37-.99.93-1.49 1.97-1.49 3.12l.13 2.36c0 1.23-.3 2.17-.92 2.85-.64.66-1.45.98-2.49.98-1 0-1.82-.34-2.45-1.04-.63-.7-.95-1.66-.95-2.84 0-1.14.29-2.24.89-3.35.59-1.11 1.47-2.09 2.63-2.98 1.14-.88 2.56-1.6 4.21-2.13 1.65-.53 3.57-.82 5.71-.82 2.84 0 5.23.42 7.21 1.27 1.98.84 3.41 2.28 4.29 4.33.47 1.17.71 3.52.71 7.09v12.49c0 2.11.02 3.76.08 4.91.07 1.12.17 1.96.33 2.47.16.54.36.85.61.95.23.1.54.14.9.14.26 0 .53-.04.77-.12.23-.08.52-.24.84-.47.31-.25.68-.57 1.1-1.01a125 125 0 0 0 1.64-1.64v2.28c-2.99 4-5.84 6.01-8.55 6.01-1.27 0-2.31-.45-3.11-1.35-.8-.91-1.18-2.44-1.18-4.66zm0-2.64v-14.05c-2.8 1.1-5.99 2.56-9.58 4.32a7.558 7.558 0 0 0-3.08 2.87c-.74 1.25-1.1 2.63-1.1 4.15 0 .96.16 1.86.47 2.68.32.83.73 1.54 1.27 2.14.5.59 1.11 1.07 1.81 1.41.7.33 1.43.52 2.19.52 2.03 0 4.69-1.36 8.02-4.04z" class="shp0"/><path d="M402.7 158.68c-.46 2.46-1.22 4.62-2.24 6.51-1 1.88-2.2 3.46-3.57 4.73-1.39 1.29-2.89 2.26-4.51 2.92-1.66.67-3.33 1-5.04 1-2.02 0-3.99-.47-5.87-1.39-1.85-.92-3.52-2.23-4.95-3.9-1.43-1.68-2.57-3.74-3.44-6.13-.85-2.4-1.28-5.11-1.28-8.11 0-2.89.47-5.53 1.41-7.93.92-2.39 2.18-4.47 3.79-6.19 1.6-1.73 3.45-3.06 5.56-4.02 2.12-.97 4.37-1.46 6.75-1.46 1.8 0 3.45.29 4.95.82 1.49.53 2.79 1.25 3.91 2.11 1.1.87 1.98 1.81 2.6 2.87.61 1.07.94 2.09.94 3.1 0 1.05-.35 1.87-1.01 2.51-.64.61-1.56.92-2.77.92-1.25 0-2.25-.31-3.04-.92-.8-.64-1.29-1.93-1.45-3.88-.31-3.23-2.12-4.83-5.43-4.83-1.6 0-3 .37-4.23 1.1-1.2.71-2.22 1.7-3.04 2.9-.82 1.24-1.45 2.65-1.86 4.27-.43 1.62-.63 3.35-.63 5.15 0 2.11.27 4.18.82 6.18.52 2 1.32 3.79 2.35 5.35 1.03 1.55 2.3 2.8 3.77 3.74 1.47.95 3.15 1.42 5.02 1.42 1.12 0 2.19-.14 3.21-.4 1.02-.3 1.97-.79 2.92-1.48.94-.7 1.83-1.67 2.7-2.9.85-1.21 1.71-2.76 2.54-4.65l1.12.59z" class="shp0"/><path fill-rule="evenodd" d="M414.14 149.68c0 2.77.36 5.23 1.1 7.38.74 2.18 1.72 4.03 2.92 5.54 1.22 1.52 2.63 2.69 4.27 3.49 1.61.8 3.3 1.18 5.1 1.18 2.39 0 4.47-.65 6.25-1.96 1.77-1.34 3.27-3.61 4.45-6.85l1.26.78c-.29 1.8-.83 3.57-1.67 5.31-.84 1.74-1.9 3.3-3.2 4.69-1.29 1.38-2.8 2.49-4.52 3.32-1.71.85-3.59 1.28-5.61 1.28-2.2 0-4.27-.45-6.21-1.36-1.91-.9-3.61-2.19-5.08-3.85-1.45-1.66-2.61-3.65-3.47-6.01-.86-2.33-1.28-4.96-1.28-7.9 0-3.16.44-5.98 1.32-8.47.88-2.47 2.06-4.59 3.59-6.31 1.51-1.72 3.29-3.02 5.35-3.9 2.04-.88 4.27-1.33 6.68-1.33 2.02 0 3.89.37 5.61 1.06 1.72.7 3.21 1.71 4.45 3 1.26 1.31 2.25 2.87 2.96 4.72.71 1.84 1.08 3.91 1.08 6.19h-25.35zm0-2.28h16.98c-.2-3.4-1.02-5.91-2.43-7.48-1.41-1.58-3.26-2.38-5.53-2.38-1.08 0-2.12.22-3.16.66a8.656 8.656 0 0 0-2.79 1.92c-.81.84-1.5 1.87-2.05 3.1-.57 1.23-.9 2.6-1.02 4.18z" class="shp0"/><path d="M237.26 65.17c-.27 2-.52 3.24-1.4 4.57-.16.24-.38.48-.56.75-.49.74-3.15 3.13-4.02 3.65-.25.15-1.59.83-1.86.93-.35.12-1.87.71-2.25.84-1.54.51-3.69-.1-4.57 1.21-.22 3.74-.04 7.88-.1 11.77h-4.01c-.06-3.89.13-8.03-.1-11.77-.67-1.25-2.91-.7-4.47-1.21-.4-.13-1.95-.7-2.34-.84-.38-.14-4.41-2.66-4.58-2.8-.11-.09-2.52-3.17-2.8-4.01-.32-1.01-.46-3.46-.46-3.55.31-1.65.41-2.91 1.02-3.93.71-1.18 1.71-2.59 2.06-2.9.34-.29 1.92-1.08 1.77-1.95-.06-.37-.59-.53-.84-.85-.1-.12-.3-.56-.46-.83-.58-.95-.9-4.39-.38-5.8.19-.49.72-1.45 1.03-1.86.7-.96 2.51-1.92 2.52-2.99.01-1.01-.99-1.58-1.15-2.38-.27-1.41-.02-3.38.31-4.44.1-.34.54-1.05.84-1.49 1.03-1.5 3.4-3.07 3.63-3.14.39-.13 3.11-1.25 3.65-1.34 1.43-.23 4.34-.24 5.61 0 .95.18 4.41 1.33 5.45 2.18 1.04.84 2.36 2.64 2.67 4.08.22 1.02.24 3.36 0 4.33-.19.79-.99 1.51-.93 2.29.08 1.22.78 1.02 1.58 1.78.66.62 1.68 2.22 1.96 3.08.73 2.21.12 5.17-.74 6.35-.26.36-.98.73-.93 1.31.04.68 1.28 1.25 1.77 1.67.19.17.52.65.84 1.04.57.71 1.52 2 1.77 2.79.33 1.05.47 3.34.47 3.46z" class="shp0"/><path fill="#ff2e17" d="M241.47 89.03H199.4V33.24h42.07v55.79z"/><path fill="#ff3017" d="M177.71 15.25l-.47.25v83.09c12.71-5.8 26.81-9.2 41.67-9.61V78.42c-7.97-.85-14.08-5.74-14.08-11.65 0-3.24 1.85-6.19 4.83-8.32-1.37-1.53-2.15-2.97-2.15-5.29 0-2.33 1.52-4.83 3.98-6.61-.79-1.09-1.24-2.4-1.24-5.25 0-2.84 3.67-7.92 11.14-7.92 7.46 0 11.14 5.08 11.14 7.92 0 2.85-.45 4.16-1.24 5.25 2.47 1.78 3.98 4.28 3.98 6.61 0 2.32-.79 3.76-2.16 5.29 2.99 2.13 4.83 5.07 4.83 8.32 0 5.91-6.1 10.8-14.07 11.65v10.54c14.39.25 28.08 3.3 40.5 8.62V15.25h-19.08v13.23l-6.5-.25V4.84h-36.23l.01 28.4h-6.33l-.01-17.99h-18.52z"/><path fill="#293ea1" d="M196.23 15.25h-18.99v83.34l8.24-3.35 8.37-2.62 8.72-1.9V28.23l-6.34.25V15.25z"/><path fill="#95cc45" d="M245.39 15.25h19v83.34l-8.24-3.35-8.37-2.62-8.71-1.9V28.23l6.32.25V15.25z"/><path d="M142.52 195.21v6.55c.84 0 1.43-.16 1.78-.47.34-.32.84-1.23 1.5-2.74.61-1.45 1.17-2.36 1.66-2.76.47-.39 1.24-.58 2.29-.58h.97v2.12l-.72-.01c-.71 0-1.16.1-1.35.3-.2.21-.52.84-.94 1.87-.4.99-.75 1.68-1.09 2.06-.34.38-.85.73-1.56 1.04 1.15.29 2.27 1.33 3.35 3.09l2.91 4.7h-2.91l-2.83-4.7c-.58-.95-1.08-1.57-1.52-1.88-.43-.29-.94-.44-1.54-.44v7.02h-2.7v-7.02c-.59 0-1.1.15-1.53.44-.43.28-.94.92-1.52 1.88l-2.84 4.7h-2.9l2.89-4.7c1.1-1.76 2.22-2.8 3.37-3.09-.79-.35-1.33-.73-1.65-1.15-.31-.41-.78-1.4-1.41-2.97-.21-.52-.45-.84-.69-.97-.26-.12-.63-.18-1.13-.18-.13 0-.39.01-.79.01v-2.12h.38c1.02 0 1.74.05 2.15.17.42.12.79.36 1.12.75.32.4.75 1.2 1.28 2.42.65 1.49 1.14 2.41 1.47 2.72.35.33.94.49 1.8.49v-6.55h2.7zM155.15 195.21h2.64v11.57l7.34-11.57h2.85v15.17h-2.65v-11.5l-7.33 11.5h-2.85v-15.17zM172.47 195.21h12.68v2.12h-5.02v13.05h-2.63v-13.05h-5.03v-2.12zM190.24 195.21h12.28v15.17h-2.62v-13.05h-7.02v7.56c0 1.77-.06 2.93-.17 3.49-.12.56-.44 1.05-.97 1.47-.53.42-1.3.63-2.29.63-.62 0-1.33-.04-2.14-.11v-2.14h1.17c.55 0 .93-.06 1.17-.17.24-.11.39-.28.47-.53.08-.23.12-1.01.12-2.32v-10z" class="shp5"/><path fill-rule="evenodd" d="M207.79 202.78c0-2.8.8-4.88 2.41-6.23 1.34-1.13 2.98-1.69 4.91-1.69 2.15 0 3.9.69 5.27 2.05 1.36 1.37 2.03 3.26 2.03 5.67 0 1.95-.3 3.49-.9 4.61-.61 1.12-1.48 1.98-2.63 2.6-1.15.62-2.41.93-3.77.93-2.19 0-3.95-.67-5.3-2.04-1.35-1.37-2.02-3.33-2.02-5.9zm2.72 0c0 1.95.44 3.41 1.3 4.38.89.96 1.98 1.45 3.3 1.45 1.31 0 2.41-.49 3.28-1.46.87-.97 1.31-2.45 1.31-4.44 0-1.88-.44-3.3-1.32-4.27-.88-.97-1.97-1.45-3.27-1.45-1.32 0-2.41.48-3.3 1.45-.86.95-1.3 2.41-1.3 4.34zM227.46 195.21h6.1c1.5 0 2.61.12 3.34.35.73.25 1.36.69 1.89 1.34.51.65.78 1.43.78 2.34 0 .71-.16 1.35-.46 1.89-.31.54-.77.99-1.4 1.35.75.24 1.35.68 1.84 1.33.49.66.73 1.43.73 2.32-.1 1.45-.63 2.52-1.59 3.21-.96.69-2.36 1.04-4.19 1.04h-7.04v-15.17zm2.65 6.38h2.82c1.12 0 1.9-.05 2.32-.17.42-.11.8-.34 1.13-.7.33-.34.5-.76.5-1.25 0-.8-.29-1.35-.88-1.67-.57-.31-1.58-.47-2.98-.47h-2.91v4.26zm0 6.67h3.48c1.5 0 2.52-.16 3.08-.51.57-.33.85-.92.89-1.74 0-.48-.16-.94-.5-1.35-.31-.42-.74-.67-1.25-.79-.52-.11-1.35-.16-2.5-.16h-3.2v4.55z" class="shp5"/><path d="M245.37 195.21h2.64v11.57l7.33-11.57h2.85v15.17h-2.64v-11.5l-7.34 11.5h-2.84v-15.17zM273.3 189.46h1.8c-.14 1.19-.58 2.1-1.34 2.74-.75.64-1.75.96-2.99.96-1.25 0-2.25-.31-3-.95-.76-.63-1.2-1.56-1.35-2.75h1.8c.14.65.42 1.13.83 1.44.4.32.94.48 1.63.48.8 0 1.39-.14 1.8-.46.41-.31.69-.79.82-1.46zm-9.19 5.75h2.65v11.57l7.33-11.57h2.86v15.17h-2.66v-11.5l-7.33 11.5h-2.85v-15.17zM295.76 195.21h2.64v6.55c.85 0 1.43-.16 1.77-.47.34-.32.83-1.23 1.49-2.74.52-1.2.94-2 1.27-2.38.32-.38.69-.63 1.12-.77.41-.13 1.09-.19 2.02-.19h.53v2.12l-.74-.01c-.69 0-1.14.1-1.33.3-.21.21-.52.84-.94 1.87-.4.99-.77 1.68-1.11 2.06-.33.38-.85.73-1.53 1.04 1.13.29 2.24 1.33 3.34 3.09l2.9 4.7h-2.9l-2.83-4.7c-.58-.95-1.08-1.56-1.51-1.87-.43-.3-.95-.45-1.55-.45v7.02h-2.64v-15.17z" class="shp5"/><path fill-rule="evenodd" d="M310.21 202.78c0-2.8.81-4.88 2.42-6.23 1.34-1.13 2.98-1.69 4.9-1.69 2.16 0 3.9.69 5.27 2.05 1.37 1.37 2.04 3.26 2.04 5.67 0 1.95-.3 3.49-.9 4.61-.61 1.12-1.48 1.98-2.64 2.6-1.14.62-2.4.93-3.77.93-2.18 0-3.95-.67-5.3-2.04-1.34-1.37-2.02-3.33-2.02-5.9zm2.72 0c0 1.95.45 3.41 1.32 4.38.87.96 1.97 1.45 3.28 1.45 1.32 0 2.42-.49 3.29-1.46.87-.97 1.3-2.45 1.3-4.44 0-1.88-.43-3.3-1.31-4.27-.88-.97-1.97-1.45-3.28-1.45-1.31 0-2.41.48-3.28 1.45-.87.95-1.32 2.41-1.32 4.34z" class="shp5"/><path d="M329.94 195.21h4.12l4.1 12.14 4.56-12.14h3.8v15.17h-2.64v-12.22l-4.62 12.22h-2.36l-4.37-12.81v12.81h-2.59v-15.17zM352.51 195.21h12.32v15.17h-2.65v-13.05h-7.02v13.05h-2.65v-15.17zM372.01 195.21h12.29v15.17h-2.63v-13.05h-7.01v7.56c0 1.77-.05 2.93-.17 3.49-.12.56-.44 1.05-.98 1.47-.53.42-1.3.63-2.29.63-.61 0-1.33-.04-2.13-.11v-2.14h1.16c.55 0 .94-.06 1.18-.17.23-.11.39-.28.47-.53.07-.23.11-1.01.11-2.32v-10z" class="shp5"/><path fill-rule="evenodd" d="M400.9 205.49l2.73.33c-.43 1.56-1.23 2.76-2.39 3.62-1.16.85-2.67 1.28-4.47 1.28-2.29 0-4.1-.68-5.43-2.05-1.34-1.36-2.01-3.28-2.01-5.75 0-2.55.68-4.53 2.03-5.95 1.36-1.41 3.11-2.11 5.26-2.11 2.09 0 3.8.69 5.12 2.08 1.32 1.38 1.99 3.32 1.99 5.82 0 .16-.02.38-.02.69h-11.64c.1 1.67.57 2.95 1.45 3.82.87.9 1.96 1.34 3.26 1.34.97 0 1.79-.24 2.49-.74.69-.5 1.23-1.29 1.63-2.38zm-8.69-4.15h8.72c-.12-1.28-.46-2.24-1-2.88-.85-.99-1.94-1.49-3.28-1.49-1.21 0-2.24.4-3.06 1.19-.84.79-1.28 1.85-1.38 3.18z" class="shp5"/><path d="M408.87 195.21h2.64v6.55c.85 0 1.44-.16 1.78-.47.34-.32.83-1.23 1.48-2.74.53-1.2.95-2 1.27-2.38.32-.38.69-.63 1.12-.77.42-.13 1.1-.19 2.02-.19h.54v2.12l-.74-.01c-.69 0-1.14.1-1.34.3-.2.21-.51.84-.94 1.87-.4.99-.76 1.68-1.11 2.06-.32.38-.84.73-1.53 1.04 1.13.29 2.25 1.33 3.35 3.09l2.89 4.7h-2.9l-2.83-4.7c-.57-.95-1.09-1.56-1.51-1.87-.43-.3-.95-.45-1.55-.45v7.02h-2.64v-15.17zM434.5 204.82l2.6.33c-.28 1.74-1 3.11-2.17 4.1-1.18.98-2.62 1.47-4.32 1.47-2.14 0-3.86-.67-5.15-2.02-1.31-1.37-1.95-3.32-1.95-5.85 0-1.65.28-3.07.83-4.3.56-1.23 1.41-2.16 2.55-2.77 1.14-.61 2.39-.92 3.73-.92 1.7 0 3.09.42 4.16 1.25 1.08.83 1.77 2.02 2.08 3.55l-2.58.39c-.24-1.02-.68-1.79-1.29-2.3-.63-.52-1.38-.78-2.26-.78-1.34 0-2.43.47-3.25 1.4-.84.93-1.26 2.4-1.26 4.41 0 2.04.4 3.52 1.22 4.44.8.93 1.85 1.39 3.14 1.39 1.04 0 1.89-.31 2.6-.93.7-.62 1.14-1.58 1.32-2.86z" class="shp5"/><path d="M142.52 195.21v6.55c.84 0 1.43-.16 1.78-.47.34-.32.84-1.23 1.5-2.74.61-1.45 1.17-2.36 1.66-2.76.47-.39 1.24-.58 2.29-.58h.97v2.12l-.72-.01c-.71 0-1.16.1-1.35.3-.2.21-.52.84-.94 1.87-.4.99-.75 1.68-1.09 2.06-.34.38-.85.73-1.56 1.04 1.15.29 2.27 1.33 3.35 3.09l2.91 4.7h-2.91l-2.83-4.7c-.58-.95-1.08-1.57-1.52-1.88-.43-.29-.94-.44-1.54-.44v7.02h-2.7v-7.02c-.59 0-1.1.15-1.53.44-.43.28-.94.92-1.52 1.88l-2.84 4.7h-2.9l2.89-4.7c1.1-1.76 2.22-2.8 3.37-3.09-.79-.35-1.33-.73-1.65-1.15-.31-.41-.78-1.4-1.41-2.97-.21-.52-.45-.84-.69-.97-.26-.12-.63-.18-1.13-.18-.13 0-.39.01-.79.01v-2.12h.38c1.02 0 1.74.05 2.15.17.42.12.79.36 1.12.75.32.4.75 1.2 1.28 2.42.65 1.49 1.14 2.41 1.47 2.72.35.33.94.49 1.8.49v-6.55h2.7zM155.15 195.21h2.64v11.57l7.34-11.57h2.85v15.17h-2.65v-11.5l-7.33 11.5h-2.85v-15.17zM172.47 195.21h12.68v2.12h-5.02v13.05h-2.63v-13.05h-5.03v-2.12zM190.24 195.21h12.28v15.17h-2.62v-13.05h-7.02v7.56c0 1.77-.06 2.93-.17 3.49-.12.56-.44 1.05-.97 1.47-.53.42-1.3.63-2.29.63-.62 0-1.33-.04-2.14-.11v-2.14h1.17c.55 0 .93-.06 1.17-.17.24-.11.39-.28.47-.53.08-.23.12-1.01.12-2.32v-10z" class="shp6"/><path fill-rule="evenodd" d="M207.79 202.78c0-2.8.8-4.88 2.41-6.23 1.34-1.13 2.98-1.69 4.91-1.69 2.15 0 3.9.69 5.27 2.05 1.36 1.37 2.03 3.26 2.03 5.67 0 1.95-.3 3.49-.9 4.61-.61 1.12-1.48 1.98-2.63 2.6-1.15.62-2.41.93-3.77.93-2.19 0-3.95-.67-5.3-2.04-1.35-1.37-2.02-3.33-2.02-5.9zm2.72 0c0 1.95.44 3.41 1.3 4.38.89.96 1.98 1.45 3.3 1.45 1.31 0 2.41-.49 3.28-1.46.87-.97 1.31-2.45 1.31-4.44 0-1.88-.44-3.3-1.32-4.27-.88-.97-1.97-1.45-3.27-1.45-1.32 0-2.41.48-3.3 1.45-.86.95-1.3 2.41-1.3 4.34zM227.46 195.21h6.1c1.5 0 2.61.12 3.34.35.73.25 1.36.69 1.89 1.34.51.65.78 1.43.78 2.34 0 .71-.16 1.35-.46 1.89-.31.54-.77.99-1.4 1.35.75.24 1.35.68 1.84 1.33.49.66.73 1.43.73 2.32-.1 1.45-.63 2.52-1.59 3.21-.96.69-2.36 1.04-4.19 1.04h-7.04v-15.17zm2.65 6.38h2.82c1.12 0 1.9-.05 2.32-.17.42-.11.8-.34 1.13-.7.33-.34.5-.76.5-1.25 0-.8-.29-1.35-.88-1.67-.57-.31-1.58-.47-2.98-.47h-2.91v4.26zm0 6.67h3.48c1.5 0 2.52-.16 3.08-.51.57-.33.85-.92.89-1.74 0-.48-.16-.94-.5-1.35-.31-.42-.74-.67-1.25-.79-.52-.11-1.35-.16-2.5-.16h-3.2v4.55z" class="shp6"/><path d="M245.37 195.21h2.64v11.57l7.33-11.57h2.85v15.17h-2.64v-11.5l-7.34 11.5h-2.84v-15.17zM273.3 189.46h1.8c-.14 1.19-.58 2.1-1.34 2.74-.75.64-1.75.96-2.99.96-1.25 0-2.25-.31-3-.95-.76-.63-1.2-1.56-1.35-2.75h1.8c.14.65.42 1.13.83 1.44.4.32.94.48 1.63.48.8 0 1.39-.14 1.8-.46.41-.31.69-.79.82-1.46zm-9.19 5.75h2.65v11.57l7.33-11.57h2.86v15.17h-2.66v-11.5l-7.33 11.5h-2.85v-15.17zM295.76 195.21h2.64v6.55c.85 0 1.43-.16 1.77-.47.34-.32.83-1.23 1.49-2.74.52-1.2.94-2 1.27-2.38.32-.38.69-.63 1.12-.77.41-.13 1.09-.19 2.02-.19h.53v2.12l-.74-.01c-.69 0-1.14.1-1.33.3-.21.21-.52.84-.94 1.87-.4.99-.77 1.68-1.11 2.06-.33.38-.85.73-1.53 1.04 1.13.29 2.24 1.33 3.34 3.09l2.9 4.7h-2.9l-2.83-4.7c-.58-.95-1.08-1.56-1.51-1.87-.43-.3-.95-.45-1.55-.45v7.02h-2.64v-15.17z" class="shp6"/><path fill-rule="evenodd" d="M310.21 202.78c0-2.8.81-4.88 2.42-6.23 1.34-1.13 2.98-1.69 4.9-1.69 2.16 0 3.9.69 5.27 2.05 1.37 1.37 2.04 3.26 2.04 5.67 0 1.95-.3 3.49-.9 4.61-.61 1.12-1.48 1.98-2.64 2.6-1.14.62-2.4.93-3.77.93-2.18 0-3.95-.67-5.3-2.04-1.34-1.37-2.02-3.33-2.02-5.9zm2.72 0c0 1.95.45 3.41 1.32 4.38.87.96 1.97 1.45 3.28 1.45 1.32 0 2.42-.49 3.29-1.46.87-.97 1.3-2.45 1.3-4.44 0-1.88-.43-3.3-1.31-4.27-.88-.97-1.97-1.45-3.28-1.45-1.31 0-2.41.48-3.28 1.45-.87.95-1.32 2.41-1.32 4.34z" class="shp6"/><path d="M329.94 195.21h4.12l4.1 12.14 4.56-12.14h3.8v15.17h-2.64v-12.22l-4.62 12.22h-2.36l-4.37-12.81v12.81h-2.59v-15.17zM352.51 195.21h12.32v15.17h-2.65v-13.05h-7.02v13.05h-2.65v-15.17zM372.01 195.21h12.29v15.17h-2.63v-13.05h-7.01v7.56c0 1.77-.05 2.93-.17 3.49-.12.56-.44 1.05-.98 1.47-.53.42-1.3.63-2.29.63-.61 0-1.33-.04-2.13-.11v-2.14h1.16c.55 0 .94-.06 1.18-.17.23-.11.39-.28.47-.53.07-.23.11-1.01.11-2.32v-10z" class="shp6"/><path fill-rule="evenodd" d="M400.9 205.49l2.73.33c-.43 1.56-1.23 2.76-2.39 3.62-1.16.85-2.67 1.28-4.47 1.28-2.29 0-4.1-.68-5.43-2.05-1.34-1.36-2.01-3.28-2.01-5.75 0-2.55.68-4.53 2.03-5.95 1.36-1.41 3.11-2.11 5.26-2.11 2.09 0 3.8.69 5.12 2.08 1.32 1.38 1.99 3.32 1.99 5.82 0 .16-.02.38-.02.69h-11.64c.1 1.67.57 2.95 1.45 3.82.87.9 1.96 1.34 3.26 1.34.97 0 1.79-.24 2.49-.74.69-.5 1.23-1.29 1.63-2.38zm-8.69-4.15h8.72c-.12-1.28-.46-2.24-1-2.88-.85-.99-1.94-1.49-3.28-1.49-1.21 0-2.24.4-3.06 1.19-.84.79-1.28 1.85-1.38 3.18z" class="shp6"/><path d="M408.87 195.21h2.64v6.55c.85 0 1.44-.16 1.78-.47.34-.32.83-1.23 1.48-2.74.53-1.2.95-2 1.27-2.38.32-.38.69-.63 1.12-.77.42-.13 1.1-.19 2.02-.19h.54v2.12l-.74-.01c-.69 0-1.14.1-1.34.3-.2.21-.51.84-.94 1.87-.4.99-.76 1.68-1.11 2.06-.32.38-.84.73-1.53 1.04 1.13.29 2.25 1.33 3.35 3.09l2.89 4.7h-2.9l-2.83-4.7c-.57-.95-1.09-1.56-1.51-1.87-.43-.3-.95-.45-1.55-.45v7.02h-2.64v-15.17zM434.5 204.82l2.6.33c-.28 1.74-1 3.11-2.17 4.1-1.18.98-2.62 1.47-4.32 1.47-2.14 0-3.86-.67-5.15-2.02-1.31-1.37-1.95-3.32-1.95-5.85 0-1.65.28-3.07.83-4.3.56-1.23 1.41-2.16 2.55-2.77 1.14-.61 2.39-.92 3.73-.92 1.7 0 3.09.42 4.16 1.25 1.08.83 1.77 2.02 2.08 3.55l-2.58.39c-.24-1.02-.68-1.79-1.29-2.3-.63-.52-1.38-.78-2.26-.78-1.34 0-2.43.47-3.25 1.4-.84.93-1.26 2.4-1.26 4.41 0 2.04.4 3.52 1.22 4.44.8.93 1.85 1.39 3.14 1.39 1.04 0 1.89-.31 2.6-.93.7-.62 1.14-1.58 1.32-2.86zM52.49 116.87l1.44 17.18h-1.44c-1.63-5.04-3.96-8.69-6.97-10.95-3.01-2.28-6.66-3.4-10.96-3.4-3.19 0-6.05.63-8.56 1.88a19.32 19.32 0 0 0-6.41 5.23c-1.74 2.24-3.08 4.86-4.01 7.88-.91 3.01-1.36 6.29-1.36 9.83 0 5.16 1.02 9.9 3.04 14.22 1 2.18 2.16 4.05 3.52 5.61 1.32 1.55 2.77 2.85 4.32 3.87 1.55 1.02 3.18 1.77 4.88 2.25 1.69.48 3.39.73 5.1.73 4 0 7.74-1.01 11.25-3.02v-15.79c0-1.38-.04-2.49-.14-3.35-.11-.86-.27-1.53-.49-2.02-.2-.52-.49-.89-.8-1.15-.32-.27-.69-.52-1.14-.77-.88-.42-2.38-.65-4.55-.65v-1.56h21.06v1.56h-1.01c-.93 0-1.7.1-2.33.31-.65.18-1.19.57-1.6 1.13-.42.57-.71 1.38-.9 2.42-.18 1.02-.26 2.4-.26 4.08v16.69c-1.56.84-3.08 1.59-4.58 2.2-1.5.61-3 1.1-4.5 1.47-3.13.8-6.45 1.21-10.01 1.21-4.53 0-8.65-.72-12.35-2.11-3.67-1.39-6.84-3.34-9.47-5.83a25.616 25.616 0 0 1-6.1-8.77c-1.43-3.37-2.15-7.03-2.15-11 0-4.76 1.15-9.37 3.47-13.81 2.65-5.22 6.39-9.23 11.17-12.09 4-2.31 8.7-3.48 14.13-3.48 1.07 0 2.02.04 2.86.1.83.06 1.71.18 2.6.35.91.19 1.89.45 2.93.78 1.06.34 2.35.8 3.86 1.35 1.53.62 2.53.88 3.05.85.48 0 .9-.23 1.25-.68.37-.48.6-1.38.68-2.75h1.48zM74.67 134.71v8.31c3.12-5.54 6.28-8.31 9.5-8.31.72 0 1.4.12 2.01.37.63.25 1.16.58 1.61.98.47.44.84.9 1.09 1.46.26.53.38 1.11.38 1.7 0 1.05-.35 1.93-1.04 2.65-.69.71-1.53 1.09-2.49 1.09-.43 0-.94-.15-1.51-.44-.59-.27-1.14-.59-1.67-.96-.56-.35-1.05-.68-1.51-.94-.45-.29-.8-.43-1.05-.43-.71 0-1.54.57-2.51 1.74-.95 1.17-1.9 2.65-2.81 4.45v17.72c0 1.09.08 2.07.22 2.95.12.89.43 1.62.86 2.24.45.63 1.08 1.1 1.93 1.46.87.32 2.01.51 3.46.51v1.43H62.3v-1.43c1.2 0 2.16-.09 2.89-.25.74-.16 1.33-.47 1.76-.96.45-.47.76-1.18.89-2.08.17-.9.25-2.09.25-3.57v-14.3c0-2.16-.01-3.86-.08-5.11-.06-1.23-.14-2.08-.22-2.53-.39-1.59-1.29-2.4-2.68-2.4-.45 0-.88.06-1.33.15-.42.1-.94.26-1.48.44l-.37-1.43 11.06-4.51h1.68z" class="shp6"/><path fill-rule="evenodd" d="M112.13 167.4c-1.93 1.44-3.47 2.6-4.66 3.47-1.16.86-2 1.39-2.47 1.58a11.02 11.02 0 0 1-4.61 1.02c-1.27 0-2.43-.23-3.5-.69a8.29 8.29 0 0 1-2.75-1.91c-.77-.82-1.39-1.83-1.82-2.97-.45-1.17-.65-2.48-.65-3.93 0-1.68.33-3.17.98-4.5.65-1.32 1.68-2.53 3.04-3.63 1.39-1.09 3.17-2.12 5.37-3.04 3.41-1.6 7.1-3.12 11.07-4.56v-1.45c0-1.85-.17-3.39-.45-4.62-.31-1.25-.75-2.23-1.35-2.96-.61-.75-1.33-1.28-2.17-1.57-.83-.31-1.79-.45-2.85-.45-1.72 0-3.08.45-4.09 1.37-.99.93-1.49 1.97-1.49 3.12l.13 2.36c0 1.23-.31 2.17-.92 2.85-.63.66-1.45.98-2.49.98-1 0-1.82-.34-2.45-1.04-.63-.7-.96-1.66-.96-2.84 0-1.14.3-2.24.9-3.35.59-1.11 1.47-2.09 2.63-2.98 1.14-.88 2.55-1.6 4.21-2.13 1.65-.53 3.57-.82 5.71-.82 2.83 0 5.23.42 7.21 1.27 1.97.84 3.41 2.28 4.28 4.33.47 1.17.72 3.52.72 7.09v12.49c0 2.11.03 3.76.08 4.91.07 1.12.16 1.96.33 2.47.16.54.36.85.61.95.23.1.53.14.9.14.26 0 .53-.04.78-.12.22-.08.5-.24.83-.47.31-.25.67-.57 1.1-1.01l1.64-1.64v2.28c-2.99 4-5.84 6.01-8.55 6.01-1.27 0-2.31-.45-3.11-1.35-.8-.91-1.18-2.44-1.18-4.66zm0-2.64v-14.05c-2.81 1.1-5.99 2.56-9.58 4.32a7.497 7.497 0 0 0-3.08 2.87c-.74 1.25-1.1 2.63-1.1 4.15 0 .96.16 1.86.46 2.68.33.83.74 1.54 1.27 2.14.51.59 1.12 1.07 1.82 1.41.69.33 1.42.52 2.19.52 2.03 0 4.69-1.36 8.02-4.04z" class="shp6"/><path d="M138.42 142.52c4.27-5.21 8.37-7.81 12.27-7.81 1.35 0 2.62.25 3.78.69 1.14.48 2.16 1.23 3.02 2.28.84 1.07 1.51 2.51 2 4.27.47 1.78.71 4 .71 6.64v15.76c0 1.59.09 2.85.27 3.77.18.92.47 1.62.89 2.07.41.48.98.76 1.7.88.74.13 1.65.19 2.76.19v1.43h-18.11v-1.43h.72c1.18 0 2.14-.13 2.83-.34.69-.22 1.21-.59 1.55-1.12.35-.51.56-1.24.66-2.13.1-.91.16-2.01.16-3.32v-15.1c0-3.4-.43-5.85-1.28-7.32-.86-1.48-2.33-2.21-4.42-2.21-3.22 0-6.39 1.74-9.51 5.21v19.42c0 1.55.06 2.78.16 3.68.11.91.35 1.6.74 2.08.41.47 1 .8 1.79.92.8.14 1.9.23 3.29.23v1.43h-18.17v-1.43h.78c.96 0 1.74-.13 2.37-.34.61-.22 1.1-.59 1.45-1.12.36-.51.61-1.24.76-2.13.13-.91.2-2.01.2-3.32v-13.64c0-2.65-.04-4.7-.13-6.13-.07-1.44-.22-2.51-.45-3.17-.2-.65-.51-1.04-.89-1.16-.37-.13-.84-.19-1.39-.19-.41 0-.82.06-1.23.15-.43.1-.91.26-1.47.44l-.61-1.43 11.07-4.51h1.73v7.81z" class="shp6"/><path fill-rule="evenodd" d="M194.66 168.55c-1.79 1.89-3.55 3.24-5.25 4.07-1.69.81-3.53 1.22-5.53 1.22-1.98 0-3.88-.45-5.67-1.36-1.8-.9-3.39-2.15-4.76-3.75-1.36-1.6-2.47-3.5-3.28-5.72-.82-2.19-1.23-4.59-1.23-7.2 0-2.56.43-5.1 1.29-7.61.85-2.5 2.06-4.75 3.61-6.74 1.56-2.01 3.41-3.63 5.6-4.88 2.16-1.23 4.57-1.87 7.2-1.87 3.22 0 5.9 1.02 8.02 3.07v-6.79c0-2.56-.06-4.53-.16-5.92-.1-1.37-.24-2.38-.45-3.04-.2-.63-.49-1.02-.86-1.12-.39-.13-.83-.19-1.35-.19-.79 0-1.71.22-2.75.66l-.53-1.44 10.94-4.51h1.79v42.66c0 2.57.05 4.55.13 5.95.08 1.39.22 2.44.45 3.09.21.66.49 1.07.86 1.22.36.11.81.2 1.37.2.69 0 1.65-.23 2.88-.65l.42 1.37-10.9 4.57h-1.84v-5.29zm0-2.83v-18.99c-.12-1.52-.45-2.88-.99-4.04-.54-1.2-1.21-2.19-2.01-3.02-.79-.82-1.67-1.44-2.63-1.86-.96-.42-1.92-.62-2.86-.62-1.41 0-2.69.37-3.9 1.11-1.18.74-2.24 1.78-3.14 3.16-.9 1.35-1.6 2.97-2.13 4.86-.51 1.88-.77 3.98-.77 6.29 0 2.73.33 5.13.99 7.22.66 2.09 1.52 3.84 2.58 5.25 1.04 1.44 2.25 2.51 3.61 3.23 1.35.71 2.76 1.08 4.19 1.08 2.43 0 4.78-1.23 7.06-3.67zM244.54 147.15v15.86c0 3.49.39 5.64 1.14 6.44 1.05 1.15 2.57 1.75 4.61 1.75h2.08v1.49H229.1v-1.49h2.04c2.27 0 3.9-.74 4.9-2.24.58-.88.84-2.86.84-5.95v-35.25c0-3.4-.35-5.54-1.07-6.38-1.07-1.21-2.63-1.81-4.67-1.81h-2.04v-1.5h19.92c4.79 0 8.62.52 11.48 1.56 1.4.5 2.71 1.15 3.92 2.02a14.3 14.3 0 0 1 3.19 3.07c.89 1.17 1.59 2.48 2.12 3.9.51 1.41.78 2.95.78 4.59 0 2.22-.4 4.23-1.15 6.07-.75 1.85-1.86 3.43-3.29 4.76-1.43 1.31-3.18 2.34-5.26 3.08-2.07.75-4.45 1.12-7.13 1.12-2.57 0-5.63-.37-9.14-1.09zm0-2.33c1.44.26 2.69.49 3.77.62 1.08.14 2 .22 2.82.22 1.39 0 2.69-.31 3.94-.88 1.22-.58 2.32-1.38 3.27-2.4.91-1.03 1.67-2.26 2.2-3.69.53-1.46.8-3.02.8-4.7 0-1.98-.29-3.77-.88-5.33-.61-1.58-1.43-2.89-2.47-3.98-1.02-1.09-2.25-1.9-3.63-2.46-1.41-.55-2.92-.84-4.56-.84-1.34 0-3.1.25-5.26.72v22.72zM296.75 167.4c-1.92 1.44-3.47 2.6-4.64 3.47-1.18.86-2.01 1.39-2.48 1.58-1.47.67-3.02 1.02-4.61 1.02-1.27 0-2.43-.23-3.49-.69a8.332 8.332 0 0 1-2.76-1.91 8.748 8.748 0 0 1-1.81-2.97c-.46-1.17-.66-2.48-.66-3.93 0-1.68.33-3.17.98-4.5.65-1.32 1.68-2.53 3.04-3.63 1.39-1.09 3.16-2.12 5.37-3.04 3.41-1.6 7.11-3.12 11.06-4.56v-1.45c0-1.85-.16-3.39-.45-4.62-.3-1.25-.75-2.23-1.34-2.96-.61-.75-1.33-1.28-2.16-1.57-.84-.31-1.8-.45-2.86-.45-1.72 0-3.08.45-4.09 1.37-1 .93-1.49 1.97-1.49 3.12l.13 2.36c0 1.23-.31 2.17-.92 2.85-.63.66-1.45.98-2.49.98-1.01 0-1.83-.34-2.45-1.04-.63-.7-.96-1.66-.96-2.84 0-1.14.3-2.24.89-3.35.59-1.11 1.48-2.09 2.64-2.98 1.15-.88 2.55-1.6 4.21-2.13 1.65-.53 3.57-.82 5.71-.82 2.84 0 5.22.42 7.21 1.27 1.98.84 3.4 2.28 4.28 4.33.47 1.17.72 3.52.72 7.09v12.49c0 2.11.02 3.76.08 4.91.06 1.12.17 1.96.32 2.47.17.54.38.85.62.95.22.1.53.14.9.14.26 0 .53-.04.78-.12.22-.08.51-.24.83-.47.31-.25.68-.57 1.11-1.01.4-.41.95-.96 1.62-1.64v2.28c-2.97 4-5.83 6.01-8.55 6.01-1.27 0-2.31-.45-3.1-1.35-.8-.91-1.19-2.44-1.19-4.66zm0-2.64v-14.05c-2.79 1.1-5.98 2.56-9.57 4.32a7.558 7.558 0 0 0-3.08 2.87c-.73 1.25-1.1 2.63-1.1 4.15 0 .96.16 1.86.46 2.68.33.83.74 1.54 1.27 2.14.51.59 1.12 1.07 1.82 1.41.69.33 1.43.52 2.19.52 2.03 0 4.69-1.36 8.01-4.04z" class="shp6"/><path d="M324.96 115.43v48.92c0 1.67.11 2.96.27 3.89.19.92.51 1.63.97 2.07.46.47 1.06.74 1.83.82.75.08 1.71.13 2.85.13v1.43h-18v-1.43c1.21 0 2.16-.11 2.88-.29.71-.17 1.27-.51 1.66-1.05.36-.51.61-1.23.73-2.13.13-.9.19-2.05.19-3.44v-33.47c0-2.53-.05-4.48-.15-5.87-.1-1.38-.26-2.38-.49-3.04-.23-.63-.51-1-.85-1.1-.38-.11-.8-.15-1.33-.15-.76 0-1.64.22-2.64.66l-.65-1.44 10.94-4.51h1.79z" class="shp6"/><path fill-rule="evenodd" d="M355.96 167.4c-1.92 1.44-3.48 2.6-4.66 3.47-1.16.86-2 1.39-2.47 1.58-1.47.67-3.02 1.02-4.61 1.02-1.26 0-2.43-.23-3.49-.69a8.332 8.332 0 0 1-2.76-1.91c-.77-.82-1.39-1.83-1.82-2.97-.44-1.17-.65-2.48-.65-3.93 0-1.68.33-3.17.98-4.5.65-1.32 1.68-2.53 3.05-3.63 1.38-1.09 3.16-2.12 5.36-3.04 3.41-1.6 7.1-3.12 11.07-4.56v-1.45c0-1.85-.16-3.39-.46-4.62-.3-1.25-.75-2.23-1.35-2.96-.6-.75-1.32-1.28-2.16-1.57-.82-.31-1.79-.45-2.85-.45-1.72 0-3.08.45-4.09 1.37-.99.93-1.49 1.97-1.49 3.12l.13 2.36c0 1.23-.3 2.17-.92 2.85-.64.66-1.45.98-2.49.98-1 0-1.82-.34-2.45-1.04-.63-.7-.95-1.66-.95-2.84 0-1.14.29-2.24.89-3.35.59-1.11 1.47-2.09 2.63-2.98 1.14-.88 2.56-1.6 4.21-2.13 1.65-.53 3.57-.82 5.71-.82 2.84 0 5.23.42 7.21 1.27 1.98.84 3.41 2.28 4.29 4.33.47 1.17.71 3.52.71 7.09v12.49c0 2.11.02 3.76.08 4.91.07 1.12.17 1.96.33 2.47.16.54.36.85.61.95.23.1.54.14.9.14.26 0 .53-.04.77-.12.23-.08.52-.24.84-.47.31-.25.68-.57 1.1-1.01a125 125 0 0 0 1.64-1.64v2.28c-2.99 4-5.84 6.01-8.55 6.01-1.27 0-2.31-.45-3.11-1.35-.8-.91-1.18-2.44-1.18-4.66zm0-2.64v-14.05c-2.8 1.1-5.99 2.56-9.58 4.32a7.558 7.558 0 0 0-3.08 2.87c-.74 1.25-1.1 2.63-1.1 4.15 0 .96.16 1.86.47 2.68.32.83.73 1.54 1.27 2.14.5.59 1.11 1.07 1.81 1.41.7.33 1.43.52 2.19.52 2.03 0 4.69-1.36 8.02-4.04z" class="shp6"/><path d="M402.7 158.68c-.46 2.46-1.22 4.62-2.24 6.51-1 1.88-2.2 3.46-3.57 4.73-1.39 1.29-2.89 2.26-4.51 2.92-1.66.67-3.33 1-5.04 1-2.02 0-3.99-.47-5.87-1.39-1.85-.92-3.52-2.23-4.95-3.9-1.43-1.68-2.57-3.74-3.44-6.13-.85-2.4-1.28-5.11-1.28-8.11 0-2.89.47-5.53 1.41-7.93.92-2.39 2.18-4.47 3.79-6.19 1.6-1.73 3.45-3.06 5.56-4.02 2.12-.97 4.37-1.46 6.75-1.46 1.8 0 3.45.29 4.95.82 1.49.53 2.79 1.25 3.91 2.11 1.1.87 1.98 1.81 2.6 2.87.61 1.07.94 2.09.94 3.1 0 1.05-.35 1.87-1.01 2.51-.64.61-1.56.92-2.77.92-1.25 0-2.25-.31-3.04-.92-.8-.64-1.29-1.93-1.45-3.88-.31-3.23-2.12-4.83-5.43-4.83-1.6 0-3 .37-4.23 1.1-1.2.71-2.22 1.7-3.04 2.9-.82 1.24-1.45 2.65-1.86 4.27-.43 1.62-.63 3.35-.63 5.15 0 2.11.27 4.18.82 6.18.52 2 1.32 3.79 2.35 5.35 1.03 1.55 2.3 2.8 3.77 3.74 1.47.95 3.15 1.42 5.02 1.42 1.12 0 2.19-.14 3.21-.4 1.02-.3 1.97-.79 2.92-1.48.94-.7 1.83-1.67 2.7-2.9.85-1.21 1.71-2.76 2.54-4.65l1.12.59z" class="shp6"/><path fill-rule="evenodd" d="M414.14 149.68c0 2.77.36 5.23 1.1 7.38.74 2.18 1.72 4.03 2.92 5.54 1.22 1.52 2.63 2.69 4.27 3.49 1.61.8 3.3 1.18 5.1 1.18 2.39 0 4.47-.65 6.25-1.96 1.77-1.34 3.27-3.61 4.45-6.85l1.26.78c-.29 1.8-.83 3.57-1.67 5.31-.84 1.74-1.9 3.3-3.2 4.69-1.29 1.38-2.8 2.49-4.52 3.32-1.71.85-3.59 1.28-5.61 1.28-2.2 0-4.27-.45-6.21-1.36-1.91-.9-3.61-2.19-5.08-3.85-1.45-1.66-2.61-3.65-3.47-6.01-.86-2.33-1.28-4.96-1.28-7.9 0-3.16.44-5.98 1.32-8.47.88-2.47 2.06-4.59 3.59-6.31 1.51-1.72 3.29-3.02 5.35-3.9 2.04-.88 4.27-1.33 6.68-1.33 2.02 0 3.89.37 5.61 1.06 1.72.7 3.21 1.71 4.45 3 1.26 1.31 2.25 2.87 2.96 4.72.71 1.84 1.08 3.91 1.08 6.19h-25.35zm0-2.28h16.98c-.2-3.4-1.02-5.91-2.43-7.48-1.41-1.58-3.26-2.38-5.53-2.38-1.08 0-2.12.22-3.16.66a8.656 8.656 0 0 0-2.79 1.92c-.81.84-1.5 1.87-2.05 3.1-.57 1.23-.9 2.6-1.02 4.18z" class="shp6"/><path fill="#fff" d="M237.26 65.17c-.27 2-.52 3.24-1.4 4.57-.16.24-.38.48-.56.75-.49.74-3.15 3.13-4.02 3.65-.25.15-1.59.83-1.86.93-.35.12-1.87.71-2.25.84-1.54.51-3.69-.1-4.57 1.21-.22 3.74-.04 7.88-.1 11.77h-4.01c-.06-3.89.13-8.03-.1-11.77-.67-1.25-2.91-.7-4.47-1.21-.4-.13-1.95-.7-2.34-.84-.38-.14-4.41-2.66-4.58-2.8-.11-.09-2.52-3.17-2.8-4.01-.32-1.01-.46-3.46-.46-3.55.31-1.65.41-2.91 1.02-3.93.71-1.18 1.71-2.59 2.06-2.9.34-.29 1.92-1.08 1.77-1.95-.06-.37-.59-.53-.84-.85-.1-.12-.3-.56-.46-.83-.58-.95-.9-4.39-.38-5.8.19-.49.72-1.45 1.03-1.86.7-.96 2.51-1.92 2.52-2.99.01-1.01-.99-1.58-1.15-2.38-.27-1.41-.02-3.38.31-4.44.1-.34.54-1.05.84-1.49 1.03-1.5 3.4-3.07 3.63-3.14.39-.13 3.11-1.25 3.65-1.34 1.43-.23 4.34-.24 5.61 0 .95.18 4.41 1.33 5.45 2.18 1.04.84 2.36 2.64 2.67 4.08.22 1.02.24 3.36 0 4.33-.19.79-.99 1.51-.93 2.29.08 1.22.78 1.02 1.58 1.78.66.62 1.68 2.22 1.96 3.08.73 2.21.12 5.17-.74 6.35-.26.36-.98.73-.93 1.31.04.68 1.28 1.25 1.77 1.67.19.17.52.65.84 1.04.57.71 1.52 2 1.77 2.79.33 1.05.47 3.34.47 3.46z"/><g><path fill-rule="evenodd" d="M9.53 203.88c.07 3.99 2.61 5.63 5.56 5.63 2.11 0 3.38-.37 4.48-.84l.51 2.11c-1.04.47-2.82 1.01-5.39 1.01-4.99 0-7.97-3.28-7.97-8.17 0-4.89 2.88-8.74 7.6-8.74 5.29 0 6.69 4.65 6.69 7.63a9.8 9.8 0 0 1-.1 1.37H9.53zm8.64-2.1c.03-1.88-.77-4.79-4.09-4.79-2.98 0-4.28 2.75-4.52 4.79h8.61z" class="shp8"/><path d="M36.97 195.25v16.2h-2.91v-13.89H28.5v4.22c0 4.55-.43 7.6-2.54 8.97-.8.63-1.71 1-3.21 1l-.3-2.31c.56-.1 1.2-.33 1.6-.66 1.51-1.11 1.68-3.39 1.68-7v-6.53h11.24zM45.07 190.7c.03 1-.7 1.8-1.88 1.8-1.03 0-1.77-.8-1.77-1.8 0-1.04.77-1.85 1.84-1.85 1.11 0 1.81.81 1.81 1.85zm-3.28 20.75v-16.2h2.94v16.2h-2.94zM60.47 195.25v2.34h-5.06v13.86H52.5v-13.86h-5.06v-2.34h13.03zM65.88 195.25v6.53h7.7v-6.53h2.92v16.2h-2.92v-7.33h-7.7v7.33h-2.91v-16.2h2.91zM84.02 195.25v6.83c0 2.57-.03 4.18-.16 6.49l.1.04c.97-1.98 1.54-3.12 2.61-4.99l5.05-8.37h3.45v16.2h-2.81v-6.86c0-2.65.07-4.02.2-6.63h-.1a90.43 90.43 0 0 1-2.68 5.02c-1.54 2.51-3.31 5.63-5.05 8.47h-3.38v-16.2h2.77zM102.56 195.25v6.83c0 2.57-.03 4.18-.16 6.49l.1.04c.97-1.98 1.54-3.12 2.61-4.99l5.05-8.37h3.45v16.2h-2.81v-6.86c0-2.65.07-4.02.2-6.63h-.1a90.43 90.43 0 0 1-2.68 5.02c-1.54 2.51-3.31 5.63-5.05 8.47h-3.39v-16.2h2.78zm1.91-6.6c.1 1.44.8 2.55 2.14 2.55 1.44 0 2.11-1.07 2.28-2.55H111c-.13 2.75-1.88 4.16-4.45 4.16-2.95 0-4.09-1.85-4.22-4.16h2.14z" class="shp8"/></g><g><path fill-rule="evenodd" d="M9.5 203.73c.07 3.85 2.59 5.43 5.52 5.43 2.09 0 3.35-.35 4.45-.81l.5 2.04c-1.03.46-2.79.98-5.35.98-4.95 0-7.91-3.18-7.91-7.9 0-4.72 2.86-8.44 7.54-8.44 5.25 0 6.65 4.5 6.65 7.37 0 .59-.07 1.04-.1 1.33H9.5zm8.57-2.04c.04-1.81-.76-4.63-4.05-4.63-2.96 0-4.25 2.66-4.49 4.63h8.54z" class="shp6"/><path d="M36.75 195.38v15.66h-2.89v-13.42h-5.52v4.07c0 4.4-.43 7.34-2.53 8.67-.79.61-1.69.97-3.19.97l-.3-2.23c.57-.1 1.2-.32 1.6-.65 1.49-1.07 1.66-3.26 1.66-6.76v-6.31h11.17zM44.79 190.98c.03.98-.7 1.75-1.87 1.75-1.03 0-1.76-.77-1.76-1.75 0-1 .77-1.77 1.83-1.77 1.1 0 1.8.77 1.8 1.77zm-3.26 20.06v-15.66h2.92v15.66h-2.92zM60.07 195.38v2.27h-5.02v13.39h-2.89v-13.39h-5.02v-2.27h12.93zM65.45 195.38v6.31h7.65v-6.31h2.89v15.66H73.1v-7.08h-7.65v7.08h-2.89v-15.66h2.89zM83.46 195.38v6.6c0 2.49-.03 4.05-.16 6.28l.1.03c.96-1.91 1.52-3.01 2.59-4.82l5.02-8.09h3.42v15.66h-2.79v-6.63c0-2.56.06-3.88.2-6.41h-.1a89.545 89.545 0 0 1-2.66 4.86c-1.53 2.42-3.29 5.43-5.02 8.18H80.7v-15.66h2.76zM101.87 195.38v6.6c0 2.49-.04 4.05-.17 6.28l.1.03c.97-1.91 1.53-3.01 2.59-4.82l5.02-8.09h3.42v15.66h-2.79v-6.63c0-2.56.07-3.88.2-6.41h-.1c-1.03 2.01-1.72 3.27-2.66 4.86-1.52 2.42-3.29 5.43-5.01 8.18h-3.36v-15.66h2.76zm1.89-6.37c.1 1.39.8 2.46 2.13 2.46 1.43 0 2.09-1.03 2.26-2.46h2.09c-.13 2.65-1.86 4.01-4.42 4.01-2.92 0-4.05-1.78-4.18-4.01h2.12z" class="shp6"/></g></svg>