<svg xmlns="http://www.w3.org/2000/svg" viewBox="0 0 31 31"><radialGradient id="SVGID_1_" cx="17.091" cy="-29.578" r="46.361" gradientTransform="matrix(.6475 -.7749 -.5087 -.4304 -19.555 37.778)" gradientUnits="userSpaceOnUse"><stop offset=".073" stop-color="#eacc7b"/><stop offset=".184" stop-color="#ecab5a"/><stop offset=".307" stop-color="#f0802f"/><stop offset=".358" stop-color="#ed6e3d"/><stop offset=".46" stop-color="#ea4d52"/><stop offset=".516" stop-color="#e84059"/><stop offset=".689" stop-color="#cc4291"/><stop offset=".724" stop-color="#bb4592"/><stop offset=".789" stop-color="#924895"/><stop offset=".877" stop-color="#5e4c9a"/><stop offset=".98" stop-color="#3956a3"/></radialGradient><path fill="url(#SVGID_1_)" d="M24.3 31H6.9c-3.7 0-6.7-3-6.7-6.7V6.7C.2 3 3.2 0 6.9 0h17.4C28 0 31 3 31 6.7v17.5c0 3.8-3 6.8-6.7 6.8z"/><path fill="#fff" d="M15.6 6.1c3.1 0 3.4 0 4.6.1 1.1.1 1.7.3 2.1.4.5.2.9.5 1.3.9s.7.8.9 1.3c.1.4.3 1 .4 2.2v4.6c0 3.1 0 3.4-.1 4.7-.1 1.1-.3 1.8-.4 2.2-.2.5-.5.9-.9 1.3s-.8.7-1.3.9c-.4.1-1 .3-2.1.4h-4.6c-3.1 0-3.4 0-4.6-.1-1.1-.1-1.7-.3-2.1-.4-.5-.2-.9-.5-1.3-.9s-.7-.8-.9-1.3c-.1-.4-.3-1-.4-2.2v-4.6c0-3.1 0-3.4.1-4.6.1-1.1.3-1.8.4-2.2.2-.5.5-.9.9-1.3.4-.6.8-.8 1.3-1 .4-.1 1-.3 2.1-.4h4.6m0-2.1c-3.1 0-3.5 0-4.7.1s-2 .3-2.7.5c-.8.3-1.4.7-2 1.4s-1 1.3-1.3 2c-.3.7-.5 1.6-.5 2.8-.1 1.2-.1 1.6-.1 4.7s0 3.5.1 4.7.3 2 .5 2.8c.3.7.7 1.4 1.3 2 .6.6 1.3 1 2 1.3.7.3 1.5.5 2.7.5s1.6.1 4.7.1 3.5 0 4.7-.1 2-.3 2.7-.5c.7-.3 1.4-.7 2-1.3.6-.6 1-1.3 1.3-2 .3-.7.5-1.5.5-2.8.2-1.2.2-1.6.2-4.7s0-3.5-.1-4.7c-.1-1.2-.3-2-.5-2.8-.3-.7-.7-1.4-1.3-2-.7-.6-1.3-1-2-1.3-.7-.3-1.5-.5-2.7-.5-1.3-.2-1.7-.2-4.8-.2z"/><path fill="#fff" d="M15.6 9.4c-3.3 0-6 2.7-6 6.1s2.7 6.1 6 6.1 6-2.7 6-6.1-2.7-6.1-6-6.1zm0 10.1c-2.2 0-4-1.8-4-4s1.8-4 4-4 4 1.8 4 4-1.8 4-4 4z"/><circle fill="#fff" cx="21.6" cy="9.4" r="1.3"/></svg>