<svg xmlns="http://www.w3.org/2000/svg"><symbol id="fb" viewBox="0 0 31 31"><path d="M27.8 0H3.2C1.5 0 0 1.5 0 3.2v24.6C0 29.5 1.5 31 3.2 31h24.6c1.8 0 3.2-1.5 3.2-3.2V3.2C31 1.5 29.5 0 27.8 0zm-1.9 20.1h-4.7v10.8h-6V20h-2.9v-4.9h3V9.2s.6-3.9 4-4c3.4-.1 5.9 0 5.9 0V10h-2.9s-1.1.1-1.1 1.2-.2 3.7-.2 3.7h4.9v5.2z"/></symbol><symbol id="inst" viewBox="0 0 31 31"><radialGradient id="svgid" cx="17.091" cy="-29.578" r="46.361" gradientTransform="matrix(.6475 -.7749 -.5087 -.4304 -19.555 37.778)" gradientUnits="userSpaceOnUse"><stop offset=".073" stop-color="#eacc7b"/><stop offset=".184" stop-color="#ecab5a"/><stop offset=".307" stop-color="#f0802f"/><stop offset=".358" stop-color="#ed6e3d"/><stop offset=".46" stop-color="#ea4d52"/><stop offset=".516" stop-color="#e84059"/><stop offset=".689" stop-color="#cc4291"/><stop offset=".724" stop-color="#bb4592"/><stop offset=".789" stop-color="#924895"/><stop offset=".877" stop-color="#5e4c9a"/><stop offset=".98" stop-color="#3956a3"/></radialGradient><path fill="url(img/sprite.svg#svgid)" d="M24.3 31H6.9c-3.7 0-6.7-3-6.7-6.7V6.7C.2 3 3.2 0 6.9 0h17.4C28 0 31 3 31 6.7v17.5c0 3.8-3 6.8-6.7 6.8z"/><path fill="#fff" d="M15.6 6.1c3.1 0 3.4 0 4.6.1 1.1.1 1.7.3 2.1.4.5.2.9.5 1.3.9s.7.8.9 1.3c.1.4.3 1 .4 2.2v4.6c0 3.1 0 3.4-.1 4.7-.1 1.1-.3 1.8-.4 2.2-.2.5-.5.9-.9 1.3s-.8.7-1.3.9c-.4.1-1 .3-2.1.4h-4.6c-3.1 0-3.4 0-4.6-.1-1.1-.1-1.7-.3-2.1-.4-.5-.2-.9-.5-1.3-.9s-.7-.8-.9-1.3c-.1-.4-.3-1-.4-2.2v-4.6c0-3.1 0-3.4.1-4.6.1-1.1.3-1.8.4-2.2.2-.5.5-.9.9-1.3.4-.6.8-.8 1.3-1 .4-.1 1-.3 2.1-.4h4.6m0-2.1c-3.1 0-3.5 0-4.7.1s-2 .3-2.7.5c-.8.3-1.4.7-2 1.4s-1 1.3-1.3 2c-.3.7-.5 1.6-.5 2.8-.1 1.2-.1 1.6-.1 4.7s0 3.5.1 4.7.3 2 .5 2.8c.3.7.7 1.4 1.3 2 .6.6 1.3 1 2 1.3.7.3 1.5.5 2.7.5s1.6.1 4.7.1 3.5 0 4.7-.1 2-.3 2.7-.5c.7-.3 1.4-.7 2-1.3.6-.6 1-1.3 1.3-2 .3-.7.5-1.5.5-2.8.2-1.2.2-1.6.2-4.7s0-3.5-.1-4.7c-.1-1.2-.3-2-.5-2.8-.3-.7-.7-1.4-1.3-2-.7-.6-1.3-1-2-1.3-.7-.3-1.5-.5-2.7-.5-1.3-.2-1.7-.2-4.8-.2z"/><path fill="#fff" d="M15.6 9.4c-3.3 0-6 2.7-6 6.1s2.7 6.1 6 6.1 6-2.7 6-6.1-2.7-6.1-6-6.1zm0 10.1c-2.2 0-4-1.8-4-4s1.8-4 4-4 4 1.8 4 4-1.8 4-4 4z"/><circle fill="#fff" cx="21.6" cy="9.4" r="1.3"/></symbol><symbol id="pin-footer" viewBox="0 0 30 40"><path d="M15 0C6.7 0 0 6.2 0 13.9c0 2.4.7 4.7 1.9 6.7 0 .1.1.2.2.3.3.5.6.9 1 1.4L15.7 40l11.6-18c.5-.6.9-1.3 1.3-2 1-1.8 1.5-3.9 1.5-6.1C30 6.2 23.3 0 15 0zm.3 19.5c-3.6 0-6.5-2.9-6.5-6.5s2.9-6.5 6.5-6.5 6.5 2.9 6.5 6.5c0 3.5-3 6.5-6.5 6.5z"/><circle r="4" cx="15.3" cy="13"/></symbol><symbol id="email" viewBox="0 0 31 23"><path d="M30.3 1.9c-.3-.5-.6-.9-1.1-1.2C28.6.2 27.8 0 27 0H4c-.8 0-1.5.2-2.1.7-.5.3-.9.7-1.2 1.1-.4.7-.7 1.6-.7 2.5v14.5c0 .8.2 1.5.5 2.1.3.5.6.9 1 1.3.7.4 1.6.8 2.5.8h23c.9 0 1.7-.3 2.4-.9.4-.4.8-.8 1-1.2.4-.6.6-1.4.6-2.2V4.3c0-.9-.2-1.7-.7-2.4zM4 1.7h23c.4 0 .7.1 1.1.3l-7.7 8.2-1.1 1.2-1.3 1.3c-1.3 1.4-3.5 1.4-4.9 0l-1.3-1.4-1.1-1.3L3 1.9c.3-.1.7-.2 1-.2zm-2.4 17V4.3c0-.5.1-.9.3-1.2l7.7 8.2-7.8 8.3c-.2-.3-.2-.6-.2-.9zM27 21.3H4c-.5 0-1-.2-1.3-.4l8-8.5 1.3 1.4c1 1.1 2.3 1.6 3.6 1.6s2.6-.5 3.6-1.6l1.2-1.3 7.9 8.4c-.4.3-.8.4-1.3.4zm2.5-2.6c0 .3-.1.6-.2.9l-7.8-8.3 7.7-8.2c.2.4.3.8.3 1.2v14.4z"/></symbol><symbol id="office" viewBox="0 0 72.6 80.4"><path d="M71.1 38.8v6.3h-2.7v35.3h-5.6V45.1H32.5v-6.3zm1.5-17.9c0 .2 0 .4-.1.6L66.6 36c-.3.7-1 1.1-1.8 1H50.3c-.9 0-1.7-.8-1.7-1.7s.8-1.7 1.7-1.7h13.5l5.5-13.5c.4-.9 1.3-1.3 2.2-.9.7.4 1.1 1 1.1 1.7z"/><circle cx="22.6" cy="8.9" r="8.9"/><path d="M46.8 33.6c.1 1-.3 1.9-.9 2.6-.6.6-1.4.9-2.3.9H31.9s-2.9.1-5.9-.6v11h11.8c1.1 0 2.2.5 2.9 1.2.8.8 1.2 1.8 1.2 3v21.7c0 2.2-1.6 4.2-3.8 4.4-2.5.2-4.7-1.7-4.7-4.2V55.8H21.2c-.3 0-.6 0-.9-.1-.4.1-.7.1-1.1.1H15c-3.7 0-6.7-3-6.7-6.7V26.3c0-3.7 3-6.7 6.7-6.7h4.2c3.5 0 6.3 2.8 6.7 6.1.1 1.1.9 2.6 1.7 3.3.1.1.3.2.4.3.9.8 2.1 1.2 3.3 1.2h12c1.8.1 3.4 1.4 3.5 3.1z"/><path d="M17.1 62.7v5.5c5.4.5 8.6 3.4 10 5h.4c1.6 0 2.8 1.3 2.8 2.8s-1.3 2.8-2.8 2.8-2.8-1.3-2.8-2.8c0-.5.1-1 .4-1.4-.4-1.1-1.9-3.1-8-5.2v.7h-.5v3.2c1.2.3 2 1.4 2 2.7 0 1.6-1.3 2.8-2.8 2.8S13 77.5 13 76c0-1.3.9-2.4 2.1-2.7v-3.2h-.7v-.8c-5.1 1.8-7.1 3.5-7.8 4.6.5.5.9 1.3.9 2.1 0 1.6-1.3 2.8-2.8 2.8S1.9 77.5 1.9 76c0-1.4 1-2.5 2.3-2.8 1.4-1.7 4.8-4.7 10.3-5.1v-5.5H2.6C1.2 62.6 0 61.4 0 60V33.4c0-1.8 1.5-3.2 3.2-3.2.9 0 1.7.4 2.3 1 .6.6 1 1.4 1 2.3v24.1H29c1.4 0 2.6 1.2 2.6 2.6 0 .7-.3 1.3-.8 1.8s-1.1.8-1.8.8H17.1z"/></symbol><symbol id="park" viewBox="0 0 120 84"><path d="M60.9 60.5C59.2 66 38 72.7 41.3 83.9H.1C3.3 78.7 7.6 74 13 70c-.5-.6-.7-1.2-.7-1.9 0-2.1 2.4-3.8 5.4-3.8.7 0 1.5.1 2.1.3-.3-.7-.4-1.5-.4-2.3 0-3.2 2.3-5.8 5.2-5.8 2.4 0 4.4 1.9 5 4.4 1-.4 1.9-.7 2.9-1.1V51c.4 0 .8.1 1.2.1.6.1 1.2 0 1.8-.1v7.8c7.3-2.2 15.4-3.5 23.7-3.6 1.4 1.3 2.4 3.1 1.7 5.3zM120 83.9H48.6c2.4-9.4 7.3-8.7 15.3-16.5 4.3-4.3 3.5-8.9 1.9-12.1 3.9.2 7.6.7 11.3 1.5v-8.1c.4.1.8.1 1.2.1.6 0 1.2-.1 1.8-.3v9c1.8.4 3.6.9 5.3 1.5 1.2-3.2 3.8-5.5 6.8-5.5 4 0 7.3 3.8 7.5 8.8.6-.5 1.2-.7 1.9-.7 2 0 3.6 2.1 3.6 4.7 0 .8-.2 1.6-.4 2.2 6.5 4.2 11.6 9.6 15.2 15.4zM91.2 24.4c0 12.3-4.8 22.4-11.1 24V37.9l4.2-4.7-1.1-1-3.1 3.4V19.2h-3v12l-7.4-7.5-.9.8 8.3 8.4v15.6C70.6 47.3 65.4 37 65.4 24.3 65.4 10.9 71.2 0 78.3 0s12.9 11 12.9 24.4zM43.9 40.9c0 5-3.6 9.2-8.3 10V39.6h-3v5L29 41.7l-1 1.2 4.5 3.6v4.4c-5-.6-8.9-4.9-8.9-10.1 0-5.6 4.5-10.2 10.2-10.2 5.6.2 10.1 4.7 10.1 10.3z"/></symbol><symbol id="phone" viewBox="0 0 19 29"><path d="M15 0H4C1.8 0 0 1.8 0 4v21c0 2.2 1.8 4 4 4h11c2.2 0 4-1.8 4-4V4c0-2.2-1.8-4-4-4zm-2.9 26.5H6.9v-1.9h5.2v1.9zm4.4-3.9H2.9V4h13.6v18.6z"/></symbol><symbol id="playground" viewBox="0 0 112 111"><path d="M105.8 96.4h-.7c-.8.1-21.3 2.2-28.2-25C70.6 47 54.5 44.8 48.5 44.8v-22L26.3 2.2l-.1-.1-2-2.1L1.3 22.6l.3.3H.8v88h10.9V70.6h25.8v5.7H14.8v3h22.8v5.8H14.8v3h22.8v5.8H14.8v3h22.8v5.8H14.8v3h22.8v5.4h10.9v-39c3.5 1.7 9.4 6.4 14.1 18.8 7.2 19.1 39.2 20.1 46.3 20.1.7 0 1.2 0 1.3-.1.8 0 1.5-.6 1.6-1.3 1.5-11.3-5.7-13.1-6-13.2zM24.1 4.3l20 18.7H5.3L24.1 4.3zM8.7 107.9H3.8V70.6h4.9v37.3zm36.8 0h-4.9V70.6h4.9v37.3zm0-40.3H3.8V25.9h41.7v41.7zm63 40.4c-6.9-.1-36.5-1.3-42.9-18C60 75.2 52.5 70.4 48.4 68.9V47.7c5.5 0 19.4 2.5 24.9 24.5 7.2 27.7 28.2 27.6 31.6 27.4 1 .4 4.1 2.1 3.6 8.4z"/><path d="M24.3 62.5c-8.5 0-15.5-6.9-15.5-15.5s6.9-15.5 15.5-15.5 15.5 7 15.5 15.5-7 15.5-15.5 15.5zm0-28c-6.9 0-12.5 5.6-12.5 12.5s5.6 12.5 12.5 12.5S36.8 53.9 36.8 47s-5.6-12.5-12.5-12.5z"/></symbol><symbol id="playground-main" viewBox="0 0 93 93"><path d="M0 18v29h37V18H0zm19 26c-6.1 0-11-4.9-11-11s4.9-11 11-11 11 4.9 11 11-4.9 11-11 11zM0 51h10v42H0zm37 0v42H27v-6H15v-9h12v-9H15v-9h12v-9zM0 13.8L19 0l18 13.8zm41.9 32.7V28.2S64.5 22 73.6 59c0 0 2 20 19.4 19v13.8s-25 3.7-33.1-28.3c0 0-1.3-18-18-17z"/></symbol><symbol id="key" viewBox="0 0 115 113"><path d="M91.9 39.6c0-10.1-8.6-18.2-19.2-18.2-4.9 0-9.5 1.7-13 4.9l-.2.2-1.9 1.8 26.6 26.2 2.1-2c3.5-3.5 5.6-8.1 5.6-12.9zM61.7 28.4c3-2.6 6.9-4.1 10.9-4.1 8.9 0 16.2 6.8 16.2 15.2 0 4.1-1.7 7.9-4.8 10.8L61.7 28.4z"/><path d="M78.1 0c-20.4 0-37 16.3-37 36.3 0 4.7.9 9.2 2.6 13.3L.3 91.7 0 107.6l4.9 5.2 17.5-.1 6.9-6.9v-7.3l5.3 1.7 8.5-8.3-.3-4 3.2.8 6.9-6.4-.8-3.7 4.8.7 7.5-9.3c4.2 1.7 8.8 2.6 13.6 2.6 20.4 0 36.9-16.3 36.9-36.3S98.4 0 78.1 0zM55.2 74.9l-8.3-1.3 1.6 7.2-3.5 3.3-6.5-1.6.6 7.8-5.5 5.3-8.2-1.1v8.9l-4.6 5.3H6.5l-1.2-1.3.1-.1L45 68.5c.8-.8.8-2.1 0-2.9s-2.1-.8-2.9 0L4.2 102.7l.1-8.9 41.3-40.4c3.5 6.3 8.7 11.4 15.1 14.8l-5.5 6.7zm22.9-6.4C60 68.5 45.3 54 45.3 36.3S59.9 4 78.1 4s32.8 14.5 32.8 32.2-14.7 32.3-32.8 32.3z"/></symbol><symbol id="fourwayarrow" viewBox="0 0 114 114"><path d="M113.6 56.5l-.3-.3c0-.1-.1-.1-.2-.2l-.1-.1-16.7-15c-.8-.7-2.1-.7-2.8.1-.4.4-.5.9-.5 1.3 0 .5.2 1.1.7 1.5l12.9 11.7H59V6.8l12 13.3c.4.4.9.7 1.5.7.5 0 1-.2 1.3-.5.8-.7.9-2 .1-2.8L58.8.7c-.7-.8-2-.9-2.8-.1l-.3.3c-.1 0-.1.1-.2.2l-.1.1-15 16.6c-.7.8-.7 2.1.2 2.8.4.4.9.5 1.3.5.5 0 1.1-.2 1.5-.7L55 7.5v47.9H6.9l13.3-12c.4-.4.7-.9.7-1.5 0-.5-.2-1-.5-1.3-.7-.8-2-.9-2.8-.1L.7 55.7c-.8.7-.9 2-.1 2.8l.3.3c0 .1.1.1.2.2l16.7 15.1c.8.7 2.1.7 2.8-.1.4-.4.5-.9.5-1.3 0-.5-.2-1.1-.7-1.5L7.6 59.5H55v47.7L43 93.9c-.4-.4-.9-.7-1.5-.7-.5 0-1 .2-1.3.5-.8.7-.9 2-.1 2.8l15.1 16.8c.7.8 2 .9 2.8.1l.3-.3c.1 0 .1-.1.2-.2l.1-.1 15.1-16.7c.7-.8.7-2.1-.1-2.8-.4-.3-.9-.5-1.3-.5-.6 0-1.1.2-1.5.7l-11.7 12.9v-47h48.3l-13.3 12c-.4.4-.7.9-.7 1.5 0 .5.2 1 .5 1.3.7.8 2 .9 2.8.1l16.8-15.1c.8-.6.8-1.9.1-2.7zm-.4 2.3s0 .1 0 0c0 0 .1 0 0 0 .1 0 .1 0 0 0z"/></symbol><symbol id="infrastructure" viewBox="0 0 110 109"><path d="M645.5 282.1h-64.4V269c6.3 0 11.4-5.4 11.4-11.7V240c0-6.6-5.4-11.7-11.7-11.7H422.1c-6.3 0-11.7 5.4-11.7 11.7v17.3c0 4.8 3 9 7.2 10.8v14h-59.2c-11.7 0-21.4 9.6-21.4 21.2v252.2h330.2V303.3c-.3-11.7-10-21.2-21.7-21.2zm-226.2-42.2c0-1.5 1.2-2.7 2.7-2.7h158.8c1.5 0 2.7 1.2 2.7 2.7v17.3c0 1.5-1.2 2.7-2.7 2.7H422.1c-1.5 0-2.7-1.2-2.7-2.7v-17.3zm152.8 28.7v145.8h-105c-3.3 0-6.6.6-9.3 2.1-11.7 5.4-22.3 11.7-31.3 17.9V268.6h145.6zM441.3 435.4c3.3 19.7.6 34.1-8.4 42.4-12.3 12-33.4 10.8-43.9 9.3 9.9-15.9 26.1-35.6 52.3-51.7zm-95.6-132.1c0-6.9 5.7-12.3 12.3-12.3h59.2v150.3c-37.9 30.8-48.7 66.3-49.9 71.7h-21.7V303.3zm312.1 243.2H345.7V522h312.2c-.1 0-.1 24.5-.1 24.5zM471.4 508v-38c0-7.5 6.3-13.7 13.8-13.7h9.6c7.5 0 13.8 6.3 13.8 13.7v38c0 2.7-2.1 4.8-4.8 4.8h-27.4c-2.9.3-5-2.1-5-4.8zm186.4 5.1H516.5c.6-1.5.9-3 .9-4.8V470c0-12.6-10.2-22.7-22.9-22.7h-9.6c-12.6 0-22.9 10.2-22.9 22.7v38c0 1.8.3 3.3.9 4.8h-86.3c1.2-3.3 3.3-9.6 7.5-17.6 3.6.6 9.9 1.5 17.1 1.5 12.3 0 27.1-2.4 37.6-12.6 11.7-11.4 15-29.3 10.5-53.8 3.9-2.1 7.8-4.2 12-6 1.8-.9 3.6-1.2 5.4-1.2h190.7v90h.4zm-52.6-99.2v-24.5c0-.3.3-.6.6-.6h22.3c.3 0 .6.3.6.6v24.5c0 .3-.3.6-.6.6h-22.3c-.3-.1-.6-.3-.6-.6zm52.6.5h-20.2v-25.1c0-5.4-4.2-9.6-9.6-9.6h-22.3c-5.4 0-9.6 4.2-9.6 9.6v25.1h-15.3V291h64.4c6.9 0 12.3 5.7 12.3 12.3v111.2h.3z" transform="translate(-112.235 -76.037) scale(.3331)"/><path d="M393.5 364.2h-20.8c-5.7 0-10.2-4.5-10.2-10.2v-32.9c0-5.7 4.5-10.2 10.2-10.2h20.8c5.7 0 10.2 4.5 10.2 10.2V354c0 5.5-4.5 10.2-10.2 10.2zm-20.8-44.5c-.6 0-1.2.6-1.2 1.2v32.9c0 .6.6 1.2 1.2 1.2h20.8c.6 0 1.2-.6 1.2-1.2v-32.9c0-.6-.6-1.2-1.2-1.2h-20.8zm20.8 115.7h-20.8c-5.7 0-10.2-4.5-10.2-10.2v-32.9c0-5.7 4.5-10.2 10.2-10.2h20.8c5.7 0 10.2 4.5 10.2 10.2v32.9c0 5.7-4.5 10.2-10.2 10.2zm-20.8-44.3c-.6 0-1.2.6-1.2 1.2v32.9c0 .6.6 1.2 1.2 1.2h20.8c.6 0 1.2-.6 1.2-1.2v-32.9c0-.6-.6-1.2-1.2-1.2h-20.8zm101.1-55.8H453c-5.7 0-10.2-4.5-10.2-10.2v-32.9c0-5.7 4.5-10.2 10.2-10.2h20.8c5.7 0 10.2 4.5 10.2 10.2v32.9c.3 5.7-4.5 10.2-10.2 10.2zM453 291c-.6 0-1.2.6-1.2 1.2v32.9c0 .6.6 1.2 1.2 1.2h20.8c.6 0 1.2-.6 1.2-1.2v-32.9c0-.6-.6-1.2-1.2-1.2H453zm20.8 110.6H453c-5.7 0-10.2-4.5-10.2-10.2v-32.9c0-5.7 4.5-10.2 10.2-10.2h20.8c5.7 0 10.2 4.5 10.2 10.2v32.9c.3 5.4-4.5 10.2-10.2 10.2zM453 357.1c-.6 0-1.2.6-1.2 1.2v32.9c0 .6.6 1.2 1.2 1.2h20.8c.6 0 1.2-.6 1.2-1.2v-32.9c0-.6-.6-1.2-1.2-1.2H453zm90.6-21.8h-20.8c-5.7 0-10.2-4.5-10.2-10.2v-32.9c0-5.7 4.5-10.2 10.2-10.2h20.8c5.7 0 10.2 4.5 10.2 10.2v32.9c.3 5.7-4.5 10.2-10.2 10.2zM522.8 291c-.6 0-1.2.6-1.2 1.2v32.9c0 .6.6 1.2 1.2 1.2h20.8c.6 0 1.2-.6 1.2-1.2v-32.9c0-.6-.6-1.2-1.2-1.2h-20.8zm104.7 73.2h-20.8c-5.7 0-10.2-4.5-10.2-10.2v-32.9c0-5.7 4.5-10.2 10.2-10.2h20.8c5.7 0 10.2 4.5 10.2 10.2V354c0 5.5-4.5 10.2-10.2 10.2zm-21.1-44.5c-.6 0-1.2.6-1.2 1.2v32.9c0 .6.6 1.2 1.2 1.2h20.8c.6 0 1.2-.6 1.2-1.2v-32.9c0-.6-.6-1.2-1.2-1.2h-20.8zm-62.8 81.9h-20.8c-5.7 0-10.2-4.5-10.2-10.2v-32.9c0-5.7 4.5-10.2 10.2-10.2h20.8c5.7 0 10.2 4.5 10.2 10.2v32.9c.3 5.4-4.5 10.2-10.2 10.2zm-20.8-44.5c-.6 0-1.2.6-1.2 1.2v32.9c0 .6.6 1.2 1.2 1.2h20.8c.6 0 1.2-.6 1.2-1.2v-32.9c0-.6-.6-1.2-1.2-1.2h-20.8zm40.6 139.8h-19.5c-8.4 0-15-6.9-15-14.9v-19.7c0-8.4 6.9-14.9 15-14.9h19.5c8.4 0 15 6.9 15 14.9v19.4c0 8.4-6.6 15.2-15 15.2zm-19.5-40.6c-3.3 0-6 2.7-6 6v19.4c0 3.3 2.7 6 6 6h19.5c3.3 0 6-2.7 6-6v-19.4c0-3.3-2.7-6-6-6h-19.5zm78.8 40.6h-19.5c-8.4 0-15-6.9-15-14.9v-19.7c0-8.4 6.9-14.9 15-14.9h19.5c8.4 0 15 6.9 15 14.9v19.4c0 8.4-6.9 15.2-15 15.2zm-19.9-40.6c-3.3 0-6 2.7-6 6v19.4c0 3.3 2.7 6 6 6h19.5c3.3 0 6-2.7 6-6v-19.4c0-3.3-2.7-6-6-6h-19.5z" transform="translate(-112.235 -76.037) scale(.3331)"/></symbol><symbol id="hamburger" viewBox="0 0 67 40"><path d="M0 0h67v10.4H0zm0 29.6h67V40H0zm0-14.8h67v10.4H0z"/></symbol><symbol id="clock" viewBox="0 0 18 18"><path d="M9 18c-5 0-9-4-9-9s4-9 9-9 9 4.1 9 9c0 5-4 9-9 9zM9 1C4.6 1 1 4.6 1 9s3.6 8 8 8 8-3.6 8-8-3.6-8-8-8z"/><path d="M8.6 10.3c-.3 0-.5-.2-.5-.5V2.5c0-.2.3-.5.5-.5s.5.2.5.5v7.3c0 .3-.2.5-.5.5z"/><path d="M8.1 9.8c0-.3.2-.5.4-.5h6.9c.2 0 .4.2.4.5s-.2.5-.4.5H8.6c-.3 0-.5-.2-.5-.5z"/></symbol><symbol id="sun" viewBox="0 0 16 16.7"><path d="M15.5 7.8h-2.7c0-.5-.2-1-.4-1.4.1 0 .1 0 .2-.1L15 4.7c.2-.2.3-.5.1-.7-.2-.2-.5-.3-.7-.1l-2.3 1.6s-.1 0-.1.1c-.3-.4-.6-.8-1.1-1.1l.1-.1L12.5 2c.1-.2.1-.6-.2-.7-.2-.1-.5-.1-.7.2l-1.5 2.4V4c-.5-.3-1-.4-1.6-.5 0-.1.1-.1.1-.2V.5C8.5.2 8.3 0 7.9 0c-.2 0-.5.2-.5.5v3c-.5 0-1 .2-1.4.3v-.1L4.7 1.3c-.2-.2-.5-.3-.7-.2-.3.1-.3.4-.2.7l1.4 2.5v.1c-.5.3-.9.7-1.3 1.2l-.1-.1-2.3-1.7c-.2-.2-.5-.1-.7.1-.1.2-.1.5.1.7l2.3 1.7c.1 0 .2.1.3.1-.2.4-.4.9-.4 1.4H.4c-.3 0-.5.2-.5.6s.2.5.5.5h2.7c0 .6.2 1.1.4 1.6-.1 0-.2 0-.2.1L.9 12.2c-.2.2-.3.5-.1.7.2.2.5.3.7.1l2.3-1.6.1-.1c.3.5.8.9 1.3 1.2l-.1.1-1.3 2.5c-.1.3 0 .5.2.7.2.1.5 0 .7-.2L6 13.1V13c.4.2.9.3 1.4.3v2.9c0 .3.2.5.5.5s.5-.2.5-.5v-2.9c.6-.1 1.1-.2 1.6-.5l1.3 2.4c.1.2.4.3.7.2.2-.1.3-.4.2-.7L11 12.3c.4-.3.8-.7 1.1-1.2l2.3 1.7c.2.2.5.1.7-.1.2-.2.1-.5-.1-.7l-2.3-1.7-.1-.1c.2-.4.3-.9.3-1.4h2.7c.3 0 .5-.2.5-.5-.1-.3-.3-.5-.6-.5zm-7.6 4.6C5.8 12.4 4 10.7 4 8.5s1.8-3.9 3.9-3.9 3.9 1.7 3.9 3.9-1.7 3.9-3.9 3.9z"/></symbol><symbol id="document" viewBox="0 0 100 100"><path d="M67.1 59.4c-.7 0-1.3-.1-2-.1-.1 0-.1 0-.2-.1-8.4-6.8-13.2-15.9-15.3-21.3v-.3l.9-2c.1-.4 12.2-33.2-2.5-35.3-13.7-2-10.1 25.8-5.8 38.2v.2C32.8 64.2 25 70.4 24.4 70.8 18.8 73.2-5.3 84.4 1 96.2c6.9 12.9 26.6-11 32.2-22.3 0-.1.1-.1.1-.1 5.5-2.8 14.3-6 24.2-5.3l4.1.2 7.4 6.4s25.6 21.6 30.7 2.2c3.4-13.3-18.5-16.9-32.6-17.9zM14.4 89.1c-3.5 3.2-7.1 5-8 4-.9-1 1.1-4.5 4.6-7.6s10.8-7.9 11.8-7c.9.9-4.9 7.3-8.4 10.6zM45 12.8c0-2.6.9-4.8 2-4.8s2 2.1 2 4.8-1.9 17.1-3 17.1-1-14.4-1-17.1zm5.9 48.9c-4.7.6-9.4 2.3-13.4 4.1-.3.1-.6-.2-.4-.5l9.2-20.4c.1-.3.5-.3.6 0C49 49.7 52.4 56.4 57 61.3l.3.3c-2.1-.2-4.2-.2-6.4.1zm41.5 14.1c-.6 1.7-1.8 3-7.5.8s-15.3-7.4-14.6-9c.6-1.7 11.3.9 17 3 5.6 2.1 5.7 3.6 5.1 5.2z"/></symbol><symbol id="rest-area" viewBox="0 0 120 109"><path d="M114.2 79.1H101V57.7c10.9-.9 19.5-9.5 19.5-19.9 0-6-2.9-11.6-7.7-15.4.7-1.6 1.1-3.3 1.1-5C113.8 10 107 4 98.6 4s-15.2 6-15.2 13.4c0 1.9.4 3.7 1.3 5.4-4.6 3.8-7.2 9.1-7.2 14.9 0 10.4 8.6 19 19.5 19.9V79H22.8V59.5c11.3-.6 20.3-9.3 20.3-20 0-6-2.9-11.6-7.7-15.3.7-1.6 1.1-3.3 1.1-5 0-7.4-6.8-13.4-15.2-13.4s-15.2 6-15.2 13.4c0 1.9.4 3.7 1.3 5.4C2.9 28.4.2 33.8.2 39.5.2 49.6 8.4 58 18.9 59.3V79H6.1c-3.3 0-6 2.7-6 6v17.8c0 3.3 2.7 6 6 6h108.1c3.3 0 6-2.7 6-6V85.1c0-3.3-2.7-6-6-6zM81.4 37.8c0-5 2.5-9.7 6.9-12.8.9-.6 1.1-1.9.5-2.8-1-1.4-1.5-3.1-1.5-4.8 0-5.2 5-9.4 11.2-9.4s11.2 4.2 11.2 9.4c0 1.3-.3 2.5-.9 3.6-.3.2-.6.4-.8.7-.6.9-.3 2.2.6 2.8.1 0 .1.1.2.1h.1c4.6 3 7.4 7.9 7.4 13 0 8.2-6.8 15-15.5 15.9v-8.9l8.3-8.2c.8-.8.8-2 0-2.8s-2-.8-2.8 0l-5.4 5.4V26c0-1.1-.9-2-2-2s-2 .9-2 2v9.2L92.6 31c-.8-.8-2-.8-2.8 0s-.8 2 0 2.8L97 41v12.7c-8.8-.9-15.6-7.7-15.6-15.9zM4.1 39.5c0-5 2.5-9.7 6.9-12.8.1 0 .1-.1.2-.2.7-.7.9-1.8.3-2.6-1-1.4-1.5-3.1-1.5-4.8 0-5.2 5-9.4 11.2-9.4s11.2 4.2 11.2 9.4c0 1.3-.3 2.5-.9 3.6-.3.2-.6.4-.8.7-.6.9-.3 2.2.6 2.8.1 0 .1.1.2.1h.1c4.6 3 7.4 7.9 7.4 13 0 8.5-7.2 15.4-16.3 16V42.8c.2-.1.3-.2.5-.4l6.8-6.8c.8-.8.8-2 0-2.8s-2-.8-2.8 0l-4.5 4.5V26.1c0-1.1-.9-2-2-2s-2 .9-2 2v14.6l-6.2-6.2c-.8-.8-2-.8-2.8 0s-.8 2 0 2.8l9 9v8.9c-8.2-1.1-14.6-7.7-14.6-15.7zm37.5 65.4H6.1c-1.1 0-2-.9-2-2v-3.6h17.8c1.1 0 2-.9 2-2s-.9-2-2-2H4.1V85.1c0-1.1.9-2 2-2h24.1c2.6 1.5 15.6 9.9 11.4 21.8zm4.2 0c.4-1.6.6-3.2.6-4.7h14.9c1.1 0 2-.9 2-2s-.9-2-2-2H45.9c-1.3-5.4-5-9.8-8.8-13h50c-5.2 3.2-11.7 8.4-13.4 14.5-.7 2.5-.6 4.9.3 7.3H45.8v-.1zm70.4-8.8H96.3c-1.1 0-2 .9-2 2s.9 2 2 2h19.9v2.7c0 1.1-.9 2-2 2H78.5c-1.2-2-1.5-4.1-.9-6.2 2.2-8 15.5-14.5 17.9-15.6h18.8c1.1 0 2 .9 2 2v11.1h-.1z"/><path d="M60.6 28.5c-7.9 0-14.3-6.4-14.3-14.3C46.4 6.4 52.8 0 60.6 0c7.9 0 14.3 6.4 14.3 14.3 0 7.8-6.4 14.2-14.3 14.2zm0-24.5C55 4 50.4 8.6 50.4 14.3S55 24.6 60.7 24.6 71 20 71 14.3C70.9 8.6 66.3 4 60.6 4zm19.2 48.3c-.6 0-1.5.2-4.5 1 .7-5.1-4.5-7.7-6.7-8.7-2.5-1.2-5.3-1.5-7.8-.7-2.6.8-4.8 2.7-6 5.3-.1.2-.3.5-.4.8-.3.6-.6 1.1-.8 1.6-6.1 0-11.1 4.7-11.1 10.4 0 5 2.9 8.8 7.3 10 .9.3 1.9.4 2.9.4H84c.6-.1 1.2-.5 1.6-.9 1.9-1.6 4-4.7 4.1-8.5.1-6-4.1-10.5-9.9-10.7zM83 68.4H52.6c-4.3 0-6.2-3.2-6.2-6.4 0-3.5 3.2-6.4 7.1-6.4.2.1.4.3.7.3 1.1.3 2.2-.4 2.4-1.5.1-.4.9-1.9 1.2-2.5l.5-1c.8-1.7 2-2.8 3.6-3.3 1.5-.5 3.2-.3 4.8.5 4.8 2.3 5.1 3.9 3.9 6.3-.1.3-.3.5-.4.8-.4.9-.2 2.2.8 2.8.3.2.7.3 1.1.3.3 0 .7-.1 1-.3.3-.1.9-.2 2.1-.5 1.3-.3 3.9-1.1 4.6-1.1 4.2.2 6 3.4 5.9 6.6-.2 2.8-2 4.8-2.7 5.4z"/></symbol><symbol id="medical-center" viewBox="0 0 68 68"><path d="M34 68C15.3 68 0 52.7 0 34S15.3 0 34 0s34 15.3 34 34-15.3 34-34 34zm0-64C17.5 4 4 17.5 4 34s13.5 30 30 30 30-13.5 30-30S50.5 4 34 4z"/><path d="M62 30v8H38v24h-8V38H6v-8h24V6h8v24z"/></symbol><symbol id="halfmoon" viewBox="0 0 16 17"><path d="M16 13.1c-1.5 2.3-4.3 3.9-7.3 3.9C3.9 17 0 13.2 0 8.4 0 4.2 3.2.7 7.3 0 5.8 1.4 5 3.3 5 5.4c0 4.4 4 7.9 8.9 7.9.8.1 1.5 0 2.1-.2z"/></symbol><symbol id="underground-parking" viewBox="0 0 128.5 110.7"><path d="M119.8 6.8h4.5v44.4h-4.5zM4.6 6.8h4.5v44.4H4.6zm115.2 52.4h4.5v44.4h-4.5zm-115.2 0h4.5v44.4H4.6zM0 53.5h128.5V58H0zm0 52.7h128.5v4.5H0zM0 0h128.5v4.5H0zm101.4 28H88.5c-3.3-7.3-16-11.9-16.5-12.1l-.2-.1-20.9-.4c-17.4-.7-23.9 8.5-26 12.6-3.5 0-6.4 2.9-6.4 6.5v4.2h3c1.7 0 3.1 1.4 3.1 3.2v1.8c0 .6-.2 1.1-.5 1.6h6.7c.5-4.7 4.4-8.4 9-8.4s8.5 3.7 9 8.4h35.7c.5-4.7 4.4-8.4 9-8.4s8.5 3.7 9 8.4h4.4c-.3-.5-.5-1-.5-1.6v-1.8c0-1.7 1.4-3.2 3.1-3.2h2.4c.2-5.9-4.6-10.7-10.5-10.7zm-59.6 0H28.3c1.8-3.1 6.1-7.8 15-9.2L41.8 28zm3 0l1.6-9.5c1.3-.1 2.8-.1 4.3 0l12.3.2.6 9.3H44.8zm21.8 0l-.6-9.3 5.2.1c3.3 1.2 11 4.7 13.9 9.2H66.6z"/><path d="M21 45.2h-4c-1.2 0-2.2-1-2.2-2.2v-1.5c0-1.2 1-2.2 2.2-2.2h4c1.2 0 2.2 1 2.2 2.2V43c0 1.2-1 2.2-2.2 2.2zm93.2 0h-4.1c-1.2 0-2.2-1-2.2-2.2v-1.5c0-1.2 1-2.2 2.2-2.2h4.1c1.2 0 2.2 1 2.2 2.2V43c.1 1.2-1 2.2-2.2 2.2zm-74.4 6.5c-3.9 0-7.1-3.2-7.1-7.1s3.2-7.1 7.1-7.1 7.1 3.2 7.1 7.1-3.2 7.1-7.1 7.1zm0-11.2c-2.2 0-4.1 1.8-4.1 4.1s1.8 4.1 4.1 4.1 4.1-1.8 4.1-4.1c0-2.2-1.8-4.1-4.1-4.1z"/><circle cx="39.8" cy="44.6" r="1.7"/><path d="M93.7 51.7c-3.9 0-7.1-3.2-7.1-7.1s3.2-7.1 7.1-7.1 7.1 3.2 7.1 7.1-3.2 7.1-7.1 7.1zm0-11.2c-2.3 0-4.1 1.8-4.1 4.1s1.8 4.1 4.1 4.1 4.1-1.8 4.1-4.1c0-2.2-1.8-4.1-4.1-4.1z"/><circle cx="93.7" cy="44.6" r="1.7"/><path d="M101.4 80.7H88.5c-3.3-7.3-16-11.9-16.5-12.1l-.2-.1-20.9-.4c-17.4-.7-23.9 8.6-26 12.6-3.5 0-6.4 2.9-6.4 6.5v4.2h3c1.7 0 3.1 1.4 3.1 3.2v1.8c0 .6-.2 1.1-.5 1.6h6.7c.5-4.7 4.4-8.4 9-8.4s8.5 3.7 9 8.4h35.7c.5-4.7 4.4-8.4 9-8.4s8.5 3.7 9 8.4h4.4c-.3-.5-.5-1-.5-1.6v-1.8c0-1.7 1.4-3.2 3.1-3.2h2.4c.2-5.9-4.6-10.7-10.5-10.7zm-59.6 0H28.3c1.8-3.1 6.1-7.8 15-9.2l-1.5 9.2zm3 0l1.6-9.5c1.3-.1 2.8-.1 4.3 0l12.2.2.6 9.3H44.8zm21.8 0l-.6-9.3 5.2.1c3.3 1.2 11 4.7 13.9 9.2H66.6z"/><path d="M21 98h-4c-1.2 0-2.2-1-2.2-2.2v-1.5c0-1.2 1-2.2 2.2-2.2h4c1.2 0 2.2 1 2.2 2.2v1.4c0 1.3-1 2.3-2.2 2.3zm93.2 0h-4.1c-1.2 0-2.2-1-2.2-2.2v-1.5c0-1.2 1-2.2 2.2-2.2h4.1c1.2 0 2.2 1 2.2 2.2v1.4c.1 1.3-1 2.3-2.2 2.3zm-74.4 6.4c-3.9 0-7.1-3.2-7.1-7.1s3.2-7.1 7.1-7.1 7.1 3.2 7.1 7.1-3.2 7.1-7.1 7.1zm0-11.1c-2.2 0-4.1 1.8-4.1 4.1s1.8 4.1 4.1 4.1 4.1-1.8 4.1-4.1-1.8-4.1-4.1-4.1z"/><circle cx="39.8" cy="97.3" r="1.7"/><path d="M93.7 104.4c-3.9 0-7.1-3.2-7.1-7.1s3.2-7.1 7.1-7.1 7.1 3.2 7.1 7.1-3.2 7.1-7.1 7.1zm0-11.1c-2.3 0-4.1 1.8-4.1 4.1s1.8 4.1 4.1 4.1 4.1-1.8 4.1-4.1-1.8-4.1-4.1-4.1z"/><circle cx="93.7" cy="97.3" r="1.7"/></symbol><symbol id="purchases" viewBox="0 0 64 76"><path d="M57 11.1l-8.2.7C46.6 5.5 41.7 1 36 1c-.7 0-1.3.1-2 .2C32.5.4 30.8 0 29 0c-6.1 0-11.3 5.1-13.2 12.2H5L0 73l51 3h1l6.9-7.5H64l-7-57.4zM29 3h.6c-2.9 1.9-5.2 5.2-6.5 9.1h-4.2C20.6 6.8 24.5 3 29 3zM17.9 34.6l-8.1-6 9.9-13.8h6.6l1.5 6-9.9 13.8zm8.4-22.4c1.5-3.9 4.1-6.8 7.3-7.7 2.5 1.5 4.4 4.4 5.5 7.7H26.3zm15.9 0c-.8-3-2.3-5.8-4.2-7.9 3.3.8 6.2 3.9 7.7 7.9h-3.5zM51 74.5V12.2h4l2 55.5-6 6.8z"/><circle cx="21.5" cy="21" r="2.5"/></symbol><symbol id="pin" viewBox="0 0 34 56"><path d="M34 16.9c0 2.8-.7 5.5-1.9 7.8l-14.8 31L2.7 26.1C2 25 1.4 23.8 1 22.6c-.7-1.8-1-3.7-1-5.7C0 7.6 7.6 0 17 0s17 7.6 17 16.9z"/></symbol><symbol id="restaurants" viewBox="0 0 79 75"><path d="M6.2 49H2.8c-1.2 0-2.3 1-2.3 2.3v14.4c0 1.2 1 2.3 2.3 2.3h3.4c1.2 0 2.3-1 2.3-2.3V51.3c0-1.3-1-2.3-2.3-2.3zM6 54c-.8 0-1.5-.7-1.5-1.5S5.2 51 6 51s1.5.7 1.5 1.5S6.8 54 6 54zM48.5 5V3H51c.8 0 1.5-.7 1.5-1.5S51.8 0 51 0h-6c-.8 0-1.5.7-1.5 1.5S44.2 3 45 3h2.5v2c-16.6.2-30 13.1-30 29 0 1.2.1 2.3.2 3.5H21c0-.7-.1-1.3-.1-2C21 21 31.6 9.1 45.4 6.9 34 11.7 26 23.4 26 37v.5h52.3c.2-1.2.2-2.3.2-3.5 0-15.9-13.4-28.7-30-29zm21.2 20.5c-.2-2.4-.9-5-2.2-7.6-1.5-2.9-3.4-5.2-5.5-6.7 3.5.9 7.2 4.1 9.5 8.7 1 1.9 1.6 3.8 2 5.6h-3.8zm-2 33.3L41.5 74c-.8.4-1.7.6-2.5.4-.6.1-1.2 0-1.8-.3 0 0-16.5-5.1-16.7-5.1l-9.1-2c-1 0-1.9-.8-1.9-1.9V51c0-1.1.3-2.1.9-3 1.5-2.4 4.8-4 8.6-4 3 0 5.2 2 7.5 2.7 1 .3 3.6 1.3 3.6 1.3l.4.1 12.3 3.6c1.9.6 3 2.6 2.5 4.6l-.4 1.2c-.6 1.9-2.6 3-4.6 2.5l-7.4-2.2c-1.2-.4-2.4.5-2.4 1.8 0 .7.4 1.4 1.1 1.7l7.4 3.3c.5.2 1.2.2 1.7-.1l22.7-13.1c1.8-1 4-.4 5 1.3l.6 1.1c1 1.8.4 4-1.3 5z"/><path d="M30.5 48v.1l-.4-.1z"/></symbol><symbol id="location-center" viewBox="0 0 115 112"><path d="M113.5 111.6H1.7c-.4 0-.9-.2-1.1-.5-.3-.3-.4-.8-.3-1.3L9 47c.1-.7.7-1.4 1.5-1.4h21c.8 0 1.5.7 1.5 1.6s-.7 1.6-1.5 1.6H11.7l-8.4 59.6h108.4l-6.4-59.6H83.8c-.8 0-1.5-.7-1.5-1.6 0-.8.7-1.6 1.5-1.6h22.9c.8 0 1.4.6 1.5 1.4l6.8 62.8c0 .4-.1.8-.4 1.3s-.7.5-1.1.5z"/><path d="M23.2 85c-.3 0-.6-.1-.9-.3-.7-.5-.8-1.4-.3-2.1 1.7-2.2 3.5-3.8 3.6-3.9.6-.5 1.6-.5 2.1.2.5.6.5 1.6-.2 2.1 0 0-1.7 1.4-3.2 3.4-.2.4-.7.6-1.1.6zM102 63.9c-.2-.8-1-1.3-1.8-1.1-.8.2-1.3 1-1.1 1.8.1.5.2 1 .2 1.6 0 1.3-.4 3.9-3 6-.6.5-.7 1.5-.2 2.1.3.4.7.5 1.2.5.3 0 .7-.1.9-.3 3.6-2.9 4.1-6.5 4.1-8.4-.1-.7-.2-1.5-.3-2.2zM87.5 75.2c-2.1.2-4.3.2-6.8-.1-1-.1-2.1-.1-3.2-.2-.8 0-1.5.7-1.5 1.5s.7 1.5 1.5 1.5c1 0 2 0 3 .1 1.5.1 2.9.2 4.3.2 1.1 0 2.1 0 3.1-.1.8-.1 1.4-.8 1.4-1.6-.2-.8-1-1.4-1.8-1.3zm-37.9 9.1c-.4-.7-1.3-1-2-.6-3 1.6-6 3.3-9 5.2-.7.5-.9 1.4-.5 2.1.3.4.8.7 1.3.7.3 0 .6-.1.8-.2 2.9-1.9 5.8-3.6 8.7-5.1.8-.4 1.1-1.4.7-2.1zm-17.3 11c-.3-.8-1.1-1.2-1.9-.9-1.2.4-2.4.4-3.6 0-1.9-.7-3.2-1.5-4-2.4-.5-.7-1.5-.8-2.1-.3s-.8 1.5-.2 2.1c1.1 1.4 2.9 2.6 5.3 3.4.9.3 1.9.5 2.8.5 1 0 1.9-.2 2.8-.5.8-.3 1.2-1.2.9-1.9zm49.9-70.4C82.2 11.3 71.1.2 57.5.2 43.8.2 32.6 11.3 32.6 24.9c0 .4-.1 3.8 0 4.8 1.5 16.8 22.7 48.6 23.6 50.1-.3.4-.4.9-.2 1.4.2.6.8 1 1.4 1 .2 0 .4 0 .5-.1 3.3-1.3 6.5-2.3 9.5-3 .8-.2 1.3-1 1.1-1.8-.2-.8-1-1.3-1.8-1.1-2.6.6-5.3 1.4-8 2.4C61.3 75 80 46.3 82.1 30v-.1c.2-.9.1-4.6.1-5zm-3.1 4.5c-1.6 14-17.8 39.9-21.9 46.3-5-7.9-20.4-33-21.6-46.3 0-.1-.1-1.9-.1-2.9v-1.7c0-12 9.8-21.7 21.9-21.7 12 0 21.7 9.7 21.7 21.7.1.5.2 3.5 0 4.6zM92.7 60c-.2 0-.3 0-.5-.1-1.7-.6-3.2-.8-4.4-.7-.8 0-1.5-.6-1.6-1.4-.1-.8.6-1.5 1.4-1.6 1.5-.1 3.4.2 5.5.9.8.3 1.2 1.1 1 1.9-.2.6-.8 1-1.4 1z"/><path d="M58.3 41.5c-8 0-14.5-6.5-14.5-14.5s6.5-14.5 14.5-14.5S72.8 19 72.8 27s-6.5 14.5-14.5 14.5zm0-26c-6.3 0-11.5 5.2-11.5 11.5S52 38.5 58.3 38.5 69.8 33.3 69.8 27s-5.2-11.5-11.5-11.5z"/></symbol><symbol id="arrow" viewBox="0 0 57 26"><path d="M56.6 14L45 25.6c-.5.5-1.4.5-1.9 0-.3-.3-.4-.6-.4-1 0-.3.1-.7.4-1l8.9-8.9H0V11h51.8l-8.7-8.7c-.5-.5-.5-1.4 0-1.9.3-.3.6-.4 1-.4s.7.1 1 .4L56.7 12c.4.6.4 1.5-.1 2z"/></symbol><symbol id="fitness" viewBox="0 0 153 68"><path d="M20.5 63.5c-2.2 0-4-1.8-4-4v-47c0-2.2 1.8-4 4-4s4 1.8 4 4v47c0 2.2-1.8 4-4 4zm-7-45.5v39c0 1.4-1.1 2.5-2.5 2.5S8.5 58.4 8.5 57V38.5H2.7c-1.2 0-2.2-1-2.2-2.2v-.6c0-1.2 1-2.2 2.2-2.2h5.8V18c0-1.4 1.1-2.5 2.5-2.5.7 0 1.3.3 1.8.7.5.4.7 1.1.7 1.8zm112-10v52c0 4.1-3.4 7.5-7.5 7.5s-7.5-3.4-7.5-7.5V37.3c-.3.1-.7.2-1 .2h-67V60c0 4.1-3.4 7.5-7.5 7.5s-7.5-3.4-7.5-7.5V8c0-4.1 3.4-7.5 7.5-7.5 2.1 0 3.9.8 5.3 2.2 1.4 1.4 2.2 3.2 2.2 5.3v23.5h67c.3 0 .7.1 1 .2V8c0-2.1.8-3.9 2.2-5.3 1.4-1.4 3.2-2.2 5.3-2.2 4.1 0 7.5 3.4 7.5 7.5zm7 55.5c2.2 0 4-1.8 4-4v-47c0-2.2-1.8-4-4-4s-4 1.8-4 4v47c0 2.2 1.8 4 4 4zm7-45.5v39c0 1.4 1.1 2.5 2.5 2.5s2.5-1.1 2.5-2.5V38.5h5.8c1.2 0 2.2-1 2.2-2.2v-.6c0-1.2-1-2.2-2.2-2.2h-5.8V18c0-1.4-1.1-2.5-2.5-2.5-.7 0-1.3.3-1.8.7-.5.4-.7 1.1-.7 1.8z"/></symbol><symbol id="dry-cleaning" viewBox="0 0 65 82"><path d="M61.5 29.5c0-7.2-5.8-13-12.8-13H34.5v-3c3.4-.4 6-3.2 6-6.7 0-3.7-3-6.8-6.8-6.8S27 3 27 6.8c0 .6.1 1.2.2 1.7.2.8 1 1.3 1.8 1.1s1.3-1 1.1-1.8c-.1-.4-.1-.7-.1-1C30 4.7 31.7 3 33.8 3s3.8 1.7 3.8 3.8-1.7 3.8-3.8 3.8h-.5c-.7-.1-1.4.4-1.6 1l-.1 5H17.2c-7.1 0-12.8 5.8-12.8 12.9l-3.9 41c0 7.1 10 11.5 17.2 11.5h29.5c7.2 0 17.2-4.4 17.2-11.6l-2.9-40.9zM47.3 80H17.7c-6.2 0-15.2-3.7-15.2-9.4l3.9-41.1c0-6.1 4.8-11 10.8-11h31.5c6 0 10.8 4.9 10.8 11.1l3 40.9c0 5.8-9 9.5-15.2 9.5z"/><path d="M34.5 26l3 3L34 46.5 30.5 29l3-3-3-3 3.5-3.5 3.5 3.5z"/><path d="M61 67c0 3.7-2.5 6.2-5.9 7.8l-4.5-26.4.9 27.6c-1.7.4-3.4.5-5 .5h-27c-1.4 0-2.8-.2-4.1-.5l1.9-27.6L12.7 75C9.3 73.2 7 70.1 7 66l3-29c0-6.6 2.9-16.5 9.5-16.5h6.7L34.1 59 42 20.5h4.5C53.1 20.5 57 30.4 57 37l4 30z"/></symbol></svg>